<?xml version="1.0" encoding="UTF-8" standalone="no"?>
<!DOCTYPE svg PUBLIC "-//W3C//DTD SVG 1.0//EN" "http://www.w3.org/TR/2001/REC-SVG-20010904/DTD/svg10.dtd">
<!-- Generated by dot version 1.13 (v16) (Mon August 23, 2004)
     For user: (admin) Richard Green - Admin   Title: wordbase    Pages: 1 -->
<svg xmlns="http://www.w3.org/2000/svg" width="1212pt" height="914pt" viewBox="-1 -1 1211 913">
	<g id="graph0" class="graph" style="font-family:Times-Roman;font-size:14.00;">
		<title>wordbase</title>
		<polygon style="fill:#eee0e5;stroke:#eee0e5;" points="0,911 0,-1 1210,-1 1210,911 0,911"/>
		<text text-anchor="middle" x="605" y="899"> Domain Words </text>
		<g id="node1" class="node">
			<title>address</title>
			<text text-anchor="middle" x="696" y="379" style="font-size:18.00;fill:blue;">address</text>
		</g>
		<g id="node73" class="node">
			<title>premise-line</title>
			<text text-anchor="middle" x="848" y="257">premise-line</text>
		</g>
		<g id="edge74" class="edge">
			<title>address-&gt;premise-line</title>
			<path style="fill:none;stroke:red;" d="M719,355C745,334 789,298 819,275"/>
			<ellipse cx="822" cy="273" rx="4" ry="4" style="fill:red;stroke:red;"/>
		</g>
		<g id="node75" class="node">
			<title>city-line</title>
			<text text-anchor="middle" x="848" y="419">city-line</text>
		</g>
		<g id="edge76" class="edge">
			<title>address-&gt;city-line</title>
			<path style="fill:none;stroke:red;" d="M731,383C754,389 785,397 808,404"/>
			<ellipse cx="812" cy="405" rx="4" ry="4" style="fill:red;stroke:red;"/>
		</g>
		<g id="node2" class="node">
			<title>party</title>
			<text text-anchor="middle" x="848" y="784" style="font-size:18.00;fill:blue;">party</text>
		</g>
		<g id="node22" class="node">
			<title>name</title>
			<text text-anchor="middle" x="990" y="783">name</text>
		</g>
		<g id="edge18" class="edge">
			<title>party-&gt;name</title>
			<path style="fill:none;stroke:red;" d="M875,778C897,778 930,778 955,778"/>
			<ellipse cx="959" cy="778" rx="4" ry="4" style="fill:red;stroke:red;"/>
		</g>
		<g id="node3" class="node">
			<title>category</title>
			<text text-anchor="middle" x="696" y="163" style="font-size:18.00;fill:blue;">category</text>
		</g>
		<g id="node4" class="node">
			<title>transfer-work-order</title>
			<text text-anchor="middle" x="114" y="459">transfer-work-order</text>
		</g>
		<g id="node6" class="node">
			<title>old-residence</title>
			<text text-anchor="middle" x="336" y="351">old-residence</text>
		</g>
		<g id="edge2" class="edge">
			<title>transfer-work-order-&gt;old-residence</title>
			<path style="fill:none;stroke:red;" d="M143,436C172,418 217,392 259,373 266,370 275,366 282,364"/>
			<ellipse cx="286" cy="362" rx="4" ry="4" style="fill:red;stroke:red;"/>
		</g>
		<g id="node8" class="node">
			<title>new-residence</title>
			<text text-anchor="middle" x="336" y="297">new-residence</text>
		</g>
		<g id="edge4" class="edge">
			<title>transfer-work-order-&gt;new-residence</title>
			<path style="fill:none;stroke:red;" d="M129,436C154,407 205,351 259,319 265,315 272,312 279,309"/>
			<ellipse cx="283" cy="307" rx="4" ry="4" style="fill:red;stroke:red;"/>
		</g>
		<g id="node10" class="node">
			<title>old-billing-address</title>
			<text text-anchor="middle" x="336" y="405">old-billing-address</text>
		</g>
		<g id="edge6" class="edge">
			<title>transfer-work-order-&gt;old-billing-address</title>
			<path style="fill:none;stroke:red;" d="M177,439C205,433 239,425 267,417"/>
			<ellipse cx="271" cy="416" rx="4" ry="4" style="fill:red;stroke:red;"/>
		</g>
		<g id="node12" class="node">
			<title>new-billing-address</title>
			<text text-anchor="middle" x="336" y="459">new-billing-address</text>
		</g>
		<g id="edge8" class="edge">
			<title>transfer-work-order-&gt;new-billing-address</title>
			<path style="fill:none;stroke:red;" d="M177,454C204,454 236,454 264,454"/>
			<ellipse cx="268" cy="454" rx="4" ry="4" style="fill:red;stroke:red;"/>
		</g>
		<g id="node14" class="node">
			<title>customer-account</title>
			<text text-anchor="middle" x="336" y="513">customer-account</text>
		</g>
		<g id="edge10" class="edge">
			<title>transfer-work-order-&gt;customer-account</title>
			<path style="fill:none;stroke:red;" d="M177,469C206,476 241,485 270,492"/>
			<ellipse cx="274" cy="493" rx="4" ry="4" style="fill:red;stroke:red;"/>
		</g>
		<g id="node16" class="node">
			<title>old-residence-stop-date</title>
			<text text-anchor="middle" x="336" y="567">old-residence-stop-date</text>
		</g>
		<g id="edge12" class="edge">
			<title>transfer-work-order-&gt;old-residence-stop-date</title>
			<path style="fill:none;stroke:red;" d="M143,472C172,489 218,516 259,535 264,537 269,539 274,541"/>
			<ellipse cx="278" cy="543" rx="4" ry="4" style="fill:red;stroke:red;"/>
		</g>
		<g id="node18" class="node">
			<title>new-residence-start-date</title>
			<text text-anchor="middle" x="336" y="621">new-residence-start-date</text>
		</g>
		<g id="edge14" class="edge">
			<title>transfer-work-order-&gt;new-residence-start-date</title>
			<path style="fill:none;stroke:red;" d="M129,472C154,501 205,556 259,589 263,591 266,593 270,594"/>
			<ellipse cx="274" cy="596" rx="4" ry="4" style="fill:red;stroke:red;"/>
		</g>
		<g id="node64" class="node">
			<title>residence</title>
			<text text-anchor="middle" x="524" y="351">residence</text>
		</g>
		<g id="edge68" class="edge">
			<title>old-residence-&gt;residence</title>
			<path style="fill:none;stroke:green;" d="M382,346C411,346 450,346 479,346"/>
			<polygon style="fill:green;stroke:green;" points="479,342 489,346 479,349 479,342"/>
		</g>
		<g id="edge60" class="edge">
			<title>new-residence-&gt;residence</title>
			<path style="fill:none;stroke:green;" d="M385,306C414,314 451,325 479,333"/>
			<polygon style="fill:green;stroke:green;" points="480,330 489,336 478,336 480,330"/>
		</g>
		<g id="node43" class="node">
			<title>billing-address</title>
			<text text-anchor="middle" x="524" y="405">billing-address</text>
		</g>
		<g id="edge64" class="edge">
			<title>old-billing-address-&gt;billing-address</title>
			<path style="fill:none;stroke:green;" d="M397,400C418,400 443,400 464,400"/>
			<polygon style="fill:green;stroke:green;" points="464,396 474,400 464,403 464,396"/>
		</g>
		<g id="edge70" class="edge">
			<title>new-billing-address-&gt;billing-address</title>
			<path style="fill:none;stroke:green;" d="M399,436C421,430 444,423 464,417"/>
			<polygon style="fill:green;stroke:green;" points="463,414 474,414 465,420 463,414"/>
		</g>
		<g id="node32" class="node">
			<title>balance</title>
			<text text-anchor="middle" x="524" y="459">balance</text>
		</g>
		<g id="edge44" class="edge">
			<title>customer-account-&gt;balance</title>
			<path style="fill:none;stroke:red;" d="M394,491C424,483 460,472 487,465"/>
			<ellipse cx="491" cy="464" rx="4" ry="4" style="fill:red;stroke:red;"/>
		</g>
		<g id="node35" class="node">
			<title>invoice-history</title>
			<text text-anchor="middle" x="524" y="567">invoice-history</text>
		</g>
		<g id="edge48" class="edge">
			<title>customer-account-&gt;invoice-history</title>
			<path style="fill:none;stroke:red;" d="M394,525C416,531 443,538 465,545"/>
			<ellipse cx="469" cy="546" rx="4" ry="4" style="fill:red;stroke:red;"/>
		</g>
		<g id="edge42" class="edge">
			<title>customer-account-&gt;billing-address</title>
			<path style="fill:none;stroke:red;" d="M394,493C401,489 407,486 413,481 436,463 427,444 449,427 455,423 460,419 466,416"/>
			<ellipse cx="470" cy="414" rx="4" ry="4" style="fill:red;stroke:red;"/>
		</g>
		<g id="node46" class="node">
			<title>account</title>
			<text text-anchor="middle" x="524" y="675">account</text>
		</g>
		<g id="edge38" class="edge">
			<title>customer-account-&gt;account</title>
			<path style="fill:none;stroke:green;" d="M394,521C401,525 408,529 413,535 449,571 414,606 449,643 458,652 472,659 484,663"/>
			<polygon style="fill:green;stroke:green;" points="485,660 494,665 484,666 485,660"/>
		</g>
		<g id="node48" class="node">
			<title>customer</title>
			<text text-anchor="middle" x="524" y="783">customer</text>
		</g>
		<g id="edge40" class="edge">
			<title>customer-account-&gt;customer</title>
			<path style="fill:none;stroke:red;" d="M394,520C401,524 408,529 413,535 462,590 415,631 449,697 460,719 480,740 496,754"/>
			<ellipse cx="499" cy="757" rx="4" ry="4" style="fill:red;stroke:red;"/>
		</g>
		<g id="node52" class="node">
			<title>deposit</title>
			<text text-anchor="middle" x="524" y="513">deposit</text>
		</g>
		<g id="edge46" class="edge">
			<title>customer-account-&gt;deposit</title>
			<path style="fill:none;stroke:red;" d="M394,508C425,508 461,508 488,508"/>
			<ellipse cx="492" cy="508" rx="4" ry="4" style="fill:red;stroke:red;"/>
		</g>
		<g id="node55" class="node">
			<title>payment-history</title>
			<text text-anchor="middle" x="524" y="621">payment-history</text>
		</g>
		<g id="edge50" class="edge">
			<title>customer-account-&gt;payment-history</title>
			<path style="fill:none;stroke:red;" d="M394,523C401,526 407,530 413,535 436,552 427,571 449,589 453,592 458,595 462,598"/>
			<ellipse cx="466" cy="600" rx="4" ry="4" style="fill:red;stroke:red;"/>
		</g>
		<g id="node19" class="node">
			<title>organization</title>
			<text text-anchor="middle" x="696" y="783">organization</text>
		</g>
		<g id="edge16" class="edge">
			<title>organization-&gt;party</title>
			<path style="fill:none;stroke:green;" d="M739,778C761,778 789,778 811,778"/>
			<polygon style="fill:green;stroke:green;" points="811,774 821,778 811,781 811,774"/>
		</g>
		<g id="node23" class="node">
			<title>energy-service</title>
			<text text-anchor="middle" x="336" y="135">energy-service</text>
		</g>
		<g id="node25" class="node">
			<title>energy-service-type</title>
			<text text-anchor="middle" x="524" y="108">energy-service-type</text>
		</g>
		<g id="edge20" class="edge">
			<title>energy-service-&gt;energy-service-type</title>
			<path style="fill:none;stroke:red;" d="M385,123C405,120 430,117 452,113"/>
			<ellipse cx="456" cy="112" rx="4" ry="4" style="fill:red;stroke:red;"/>
		</g>
		<g id="node27" class="node">
			<title>energy-service-capacity</title>
			<text text-anchor="middle" x="524" y="162">energy-service-capacity</text>
		</g>
		<g id="edge22" class="edge">
			<title>energy-service-&gt;energy-service-capacity</title>
			<path style="fill:none;stroke:red;" d="M385,137C402,140 422,142 441,145"/>
			<ellipse cx="445" cy="146" rx="4" ry="4" style="fill:red;stroke:red;"/>
		</g>
		<g id="edge72" class="edge">
			<title>energy-service-capacity-&gt;category</title>
			<path style="fill:none;stroke:green;" d="M599,157C615,157 631,157 647,157"/>
			<polygon style="fill:green;stroke:green;" points="647,153 657,157 647,160 647,153"/>
		</g>
		<g id="node28" class="node">
			<title>electric-energy-service</title>
			<text text-anchor="middle" x="114" y="27">electric-energy-service</text>
		</g>
		<g id="edge24" class="edge">
			<title>electric-energy-service-&gt;energy-service</title>
			<path style="fill:none;stroke:green;" d="M186,36C199,40 211,44 223,49 255,63 287,88 308,105"/>
			<polygon style="fill:green;stroke:green;" points="311,103 316,112 306,108 311,103"/>
		</g>
		<g id="node30" class="node">
			<title>home-protection-plan</title>
			<text text-anchor="middle" x="114" y="81">home-protection-plan</text>
		</g>
		<g id="edge26" class="edge">
			<title>home-protection-plan-&gt;energy-service</title>
			<path style="fill:none;stroke:green;" d="M183,93C213,100 248,109 277,116"/>
			<polygon style="fill:green;stroke:green;" points="278,113 287,118 277,119 278,113"/>
		</g>
		<g id="node34" class="node">
			<title>money</title>
			<text text-anchor="middle" x="696" y="486">money</text>
		</g>
		<g id="edge28" class="edge">
			<title>balance-&gt;money</title>
			<path style="fill:none;stroke:green;" d="M554,459C583,463 628,470 659,475"/>
			<polygon style="fill:green;stroke:green;" points="660,472 669,477 659,478 660,472"/>
		</g>
		<g id="node102" class="node">
			<title>unit-of-measure</title>
			<text text-anchor="middle" x="848" y="486">unit-of-measure</text>
		</g>
		<g id="edge106" class="edge">
			<title>money-&gt;unit-of-measure</title>
			<path style="fill:none;stroke:green;" d="M723,481C740,481 763,481 785,481"/>
			<polygon style="fill:green;stroke:green;" points="785,477 795,481 785,484 785,477"/>
		</g>
		<g id="node37" class="node">
			<title>history</title>
			<text text-anchor="middle" x="696" y="567">history</text>
		</g>
		<g id="edge30" class="edge">
			<title>invoice-history-&gt;history</title>
			<path style="fill:none;stroke:green;" d="M575,562C601,562 633,562 658,562"/>
			<polygon style="fill:green;stroke:green;" points="658,558 668,562 658,565 658,558"/>
		</g>
		<g id="node38" class="node">
			<title>postal-code</title>
			<text text-anchor="middle" x="990" y="365">postal-code</text>
		</g>
		<g id="node40" class="node">
			<title>code</title>
			<text text-anchor="middle" x="1141" y="338">code</text>
		</g>
		<g id="edge32" class="edge">
			<title>postal-code-&gt;code</title>
			<path style="fill:none;stroke:red;" d="M1030,353C1054,349 1083,343 1106,339"/>
			<ellipse cx="1110" cy="338" rx="4" ry="4" style="fill:red;stroke:red;"/>
		</g>
		<g id="node42" class="node">
			<title>geographic-location</title>
			<text text-anchor="middle" x="1141" y="392">geographic-location</text>
		</g>
		<g id="edge34" class="edge">
			<title>postal-code-&gt;geographic-location</title>
			<path style="fill:none;stroke:red;" d="M1030,367C1042,370 1056,372 1069,374"/>
			<ellipse cx="1073" cy="375" rx="4" ry="4" style="fill:red;stroke:red;"/>
		</g>
		<g id="edge36" class="edge">
			<title>billing-address-&gt;address</title>
			<path style="fill:none;stroke:green;" d="M574,392C598,389 627,384 651,380"/>
			<polygon style="fill:green;stroke:green;" points="651,377 661,378 652,383 651,377"/>
		</g>
		<g id="node77" class="node">
			<title>short-name</title>
			<text text-anchor="middle" x="696" y="621">short-name</text>
		</g>
		<g id="edge78" class="edge">
			<title>account-&gt;short-name</title>
			<path style="fill:none;stroke:red;" d="M554,661C580,653 618,640 648,631"/>
			<ellipse cx="652" cy="629" rx="4" ry="4" style="fill:red;stroke:red;"/>
		</g>
		<g id="node79" class="node">
			<title>value</title>
			<text text-anchor="middle" x="696" y="675">value</text>
		</g>
		<g id="edge80" class="edge">
			<title>account-&gt;value</title>
			<path style="fill:none;stroke:red;" d="M554,670C583,670 630,670 661,670"/>
			<ellipse cx="665" cy="670" rx="4" ry="4" style="fill:red;stroke:red;"/>
		</g>
		<g id="node81" class="node">
			<title>transaction-history</title>
			<text text-anchor="middle" x="696" y="729">transaction-history</text>
		</g>
		<g id="edge82" class="edge">
			<title>account-&gt;transaction-history</title>
			<path style="fill:none;stroke:red;" d="M554,679C575,686 604,695 631,704"/>
			<ellipse cx="635" cy="705" rx="4" ry="4" style="fill:red;stroke:red;"/>
		</g>
		<g id="node57" class="node">
			<title>role</title>
			<text text-anchor="middle" x="696" y="837">role</text>
		</g>
		<g id="edge52" class="edge">
			<title>customer-&gt;role</title>
			<path style="fill:none;stroke:green;" d="M558,789C587,798 629,811 659,820"/>
			<polygon style="fill:green;stroke:green;" points="660,817 669,823 658,823 660,817"/>
		</g>
		<g id="edge92" class="edge">
			<title>deposit-&gt;money</title>
			<path style="fill:none;stroke:green;" d="M552,504C581,499 627,492 659,487"/>
			<polygon style="fill:green;stroke:green;" points="659,484 669,485 660,490 659,484"/>
		</g>
		<g id="edge94" class="edge">
			<title>payment-history-&gt;history</title>
			<path style="fill:none;stroke:green;" d="M578,599C604,591 635,581 658,574"/>
			<polygon style="fill:green;stroke:green;" points="657,571 668,571 659,577 657,571"/>
		</g>
		<g id="edge56" class="edge">
			<title>role-&gt;party</title>
			<path style="fill:none;stroke:red;" d="M723,822C748,814 786,801 813,791"/>
			<ellipse cx="817" cy="789" rx="4" ry="4" style="fill:red;stroke:red;"/>
		</g>
		<g id="node62" class="node">
			<title>business-process</title>
			<text text-anchor="middle" x="848" y="837">business-process</text>
		</g>
		<g id="edge58" class="edge">
			<title>role-&gt;business-process</title>
			<path style="fill:none;stroke:red;" d="M723,832C740,832 763,832 785,832"/>
			<ellipse cx="789" cy="832" rx="4" ry="4" style="fill:red;stroke:red;"/>
		</g>
		<g id="node58" class="node">
			<title>interruptible-electric-energy-service</title>
			<text text-anchor="middle" x="114" y="135">interruptible-electric-energy-service</text>
		</g>
		<g id="edge54" class="edge">
			<title>interruptible-electric-energy-service-&gt;energy-service</title>
			<path style="fill:none;stroke:green;" d="M223,130C241,130 260,130 277,130"/>
			<polygon style="fill:green;stroke:green;" points="277,126 287,130 277,133 277,126"/>
		</g>
		<g id="edge66" class="edge">
			<title>residence-&gt;address</title>
			<path style="fill:none;stroke:red;" d="M559,351C586,356 624,362 653,366"/>
			<ellipse cx="657" cy="367" rx="4" ry="4" style="fill:red;stroke:red;"/>
		</g>
		<g id="node65" class="node">
			<title>home-security-energy-service</title>
			<text text-anchor="middle" x="114" y="189">home-security-energy-service</text>
		</g>
		<g id="edge62" class="edge">
			<title>home-security-energy-service-&gt;energy-service</title>
			<path style="fill:none;stroke:green;" d="M188,166C217,159 250,151 277,144"/>
			<polygon style="fill:green;stroke:green;" points="277,141 287,142 278,147 277,141"/>
		</g>
		<g id="node83" class="node">
			<title>number</title>
			<text text-anchor="middle" x="990" y="149">number</text>
		</g>
		<g id="edge84" class="edge">
			<title>premise-line-&gt;number</title>
			<path style="fill:none;stroke:red;" d="M866,234C883,216 912,190 939,171 944,168 948,165 953,162"/>
			<ellipse cx="957" cy="160" rx="4" ry="4" style="fill:red;stroke:red;"/>
		</g>
		<g id="node85" class="node">
			<title>street-direction</title>
			<text text-anchor="middle" x="990" y="203">street-direction</text>
		</g>
		<g id="edge86" class="edge">
			<title>premise-line-&gt;street-direction</title>
			<path style="fill:none;stroke:red;" d="M891,236C905,231 920,225 935,219"/>
			<ellipse cx="939" cy="217" rx="4" ry="4" style="fill:red;stroke:red;"/>
		</g>
		<g id="node87" class="node">
			<title>street-name</title>
			<text text-anchor="middle" x="990" y="257">street-name</text>
		</g>
		<g id="edge88" class="edge">
			<title>premise-line-&gt;street-name</title>
			<path style="fill:none;stroke:red;" d="M891,252C907,252 925,252 941,252"/>
			<ellipse cx="945" cy="252" rx="4" ry="4" style="fill:red;stroke:red;"/>
		</g>
		<g id="node89" class="node">
			<title>apartment</title>
			<text text-anchor="middle" x="990" y="311">apartment</text>
		</g>
		<g id="edge90" class="edge">
			<title>premise-line-&gt;apartment</title>
			<path style="fill:none;stroke:red;" d="M891,268C908,275 929,283 946,289"/>
			<ellipse cx="950" cy="291" rx="4" ry="4" style="fill:red;stroke:red;"/>
		</g>
		<g id="edge100" class="edge">
			<title>city-line-&gt;postal-code</title>
			<path style="fill:none;stroke:red;" d="M880,402C898,395 921,386 942,378"/>
			<ellipse cx="946" cy="376" rx="4" ry="4" style="fill:red;stroke:red;"/>
		</g>
		<g id="node93" class="node">
			<title>city</title>
			<text text-anchor="middle" x="990" y="419">city</text>
		</g>
		<g id="edge96" class="edge">
			<title>city-line-&gt;city</title>
			<path style="fill:none;stroke:red;" d="M880,414C902,414 932,414 955,414"/>
			<ellipse cx="959" cy="414" rx="4" ry="4" style="fill:red;stroke:red;"/>
		</g>
		<g id="node95" class="node">
			<title>state-province</title>
			<text text-anchor="middle" x="990" y="473">state-province</text>
		</g>
		<g id="edge98" class="edge">
			<title>city-line-&gt;state-province</title>
			<path style="fill:none;stroke:red;" d="M880,426C896,432 916,440 934,447"/>
			<ellipse cx="938" cy="449" rx="4" ry="4" style="fill:red;stroke:red;"/>
		</g>
		<g id="node98" class="node">
			<title>nation</title>
			<text text-anchor="middle" x="990" y="527">nation</text>
		</g>
		<g id="edge102" class="edge">
			<title>city-line-&gt;nation</title>
			<path style="fill:none;stroke:red;" d="M876,432C885,439 895,446 903,454 921,470 920,479 939,495 944,499 950,502 956,505"/>
			<ellipse cx="960" cy="507" rx="4" ry="4" style="fill:red;stroke:red;"/>
		</g>
		<g id="node99" class="node">
			<title>gas-energy-service</title>
			<text text-anchor="middle" x="114" y="243">gas-energy-service</text>
		</g>
		<g id="edge104" class="edge">
			<title>gas-energy-service-&gt;energy-service</title>
			<path style="fill:none;stroke:green;" d="M175,227C191,223 208,218 223,211 255,197 287,172 308,155"/>
			<polygon style="fill:green;stroke:green;" points="306,152 316,148 311,157 306,152"/>
		</g>
		<g id="node103" class="node">
			<title>new-address</title>
			<text text-anchor="middle" x="114" y="297">new-address</text>
		</g>
		<g id="edge108" class="edge">
			<title>new-address-&gt;new-residence</title>
			<path style="fill:none;stroke:green;" d="M157,292C192,292 240,292 277,292"/>
			<polygon style="fill:green;stroke:green;" points="277,288 287,292 277,295 277,288"/>
		</g>
	</g>
</svg>
