<?xml version="1.0" encoding="UTF-8" standalone="no"?>
<!DOCTYPE svg PUBLIC "-//W3C//DTD SVG 1.0//EN" "http://www.w3.org/TR/2001/REC-SVG-20010904/DTD/svg10.dtd">
<!-- Generated by dot version 1.13 (v16) (Mon August 23, 2004)
     For user: (admin) Richard Green - Admin   Title: wordProp    Pages: 1 -->
<svg xmlns="http://www.w3.org/2000/svg" width="1398pt" height="487pt" viewBox="-1 -1 1397 486">
	<g id="graph0" class="graph" style="font-family:Times-Roman;font-size:14.00;">
		<title>wordProp</title>
		<g id="node1" class="node">
			<title>Goal: All customer-accounts are forwarded and new energy-services started.</title>
			<text text-anchor="middle" x="474" y="34">Goal: All customer-accounts are forwarded and new energy-services started.</text>
		</g>
		<g id="node3" class="node">
			<title>Task: Move customer to new-residence.</title>
			<text text-anchor="middle" x="474" y="106">Task: Move customer to new-residence.</text>
		</g>
		<g id="edge2" class="edge">
			<title>Goal: All customer-accounts are forwarded and new energy-services started.-&gt;Task: Move customer to new-residence.</title>
			<path style="fill:none;stroke:black;" d="M474,47C474,55 474,64 474,73"/>
			<polygon style="fill:black;stroke:black;" points="478,73 474,83 471,73 478,73"/>
		</g>
		<g id="node5" class="node">
			<title>Task: Forward old customer-accounts to customer's new-billing-address.</title>
			<ellipse cx="395" cy="245" rx="2" ry="2" style="fill:green;stroke:green;"/>
		</g>
		<g id="edge4" class="edge">
			<title>Task: Move customer to new-residence.-&gt;Task: Forward old customer-accounts to customer's new-billing-address.</title>
			<path style="fill:none;stroke:black;" d="M467,119C460,138 449,167 436,191 424,213 421,223 405,238"/>
			<polygon style="fill:black;stroke:black;" points="407,241 397,245 402,236 407,241"/>
		</g>
		<g id="node11" class="node">
			<title>Task: Start the energy-services at the customer's new-address.</title>
			<ellipse cx="752" cy="173" rx="2" ry="2" style="fill:green;stroke:green;"/>
		</g>
		<g id="edge10" class="edge">
			<title>Task: Move customer to new-residence.-&gt;Task: Start the energy-services at the customer's new-address.</title>
			<path style="fill:none;stroke:black;" d="M547,119C588,129 640,143 687,155 705,160 727,166 740,169"/>
			<polygon style="fill:black;stroke:black;" points="741,166 750,172 739,172 741,166"/>
		</g>
		<g id="node24" class="node">
			<title>energy-service</title>
			<text text-anchor="middle" x="840" y="394" style="fill:green;">energy-service</text>
		</g>
		<g id="edge50" class="edge">
			<title>Task: Move customer to new-residence.-&gt;energy-service</title>
			<path style="fill:none;stroke:green;" d="M593,117C596,118 599,118 602,119 931,196 1177,4 1341,299 1348,313 1349,322 1341,335 1325,358 1309,350 1283,355 1129,384 1089,380 934,387 922,388 911,388 899,388"/>
			<polygon style="fill:green;stroke:green;" points="899,391 889,388 899,384 899,391"/>
		</g>
		<g id="node28" class="node">
			<title>new-billing-address</title>
			<text text-anchor="middle" x="133" y="322" style="fill:green;">new-billing-address</text>
		</g>
		<g id="edge42" class="edge">
			<title>Task: Move customer to new-residence.-&gt;new-billing-address</title>
			<path style="fill:none;stroke:green;" d="M355,103C287,108 96,101 56,155 39,180 73,257 77,263 83,274 93,284 102,292"/>
			<polygon style="fill:green;stroke:green;" points="104,289 109,299 99,294 104,289"/>
		</g>
		<g id="node30" class="node">
			<title>customer-account</title>
			<text text-anchor="middle" x="271" y="322" style="fill:green;">customer-account</text>
		</g>
		<g id="edge44" class="edge">
			<title>Task: Move customer to new-residence.-&gt;customer-account</title>
			<path style="fill:none;stroke:green;" d="M355,109C243,118 91,134 72,155 21,213 130,266 206,295"/>
			<polygon style="fill:green;stroke:green;" points="208,292 216,299 205,299 208,292"/>
		</g>
		<g id="node32" class="node">
			<title>customer</title>
			<text text-anchor="middle" x="495" y="322" style="fill:green;">customer</text>
		</g>
		<g id="edge48" class="edge">
			<title>Task: Move customer to new-residence.-&gt;customer</title>
			<path style="fill:none;stroke:green;" d="M476,119C480,157 488,244 492,289"/>
			<polygon style="fill:green;stroke:green;" points="495,289 493,299 489,289 495,289"/>
		</g>
		<g id="node40" class="node">
			<title>new-residence</title>
			<text text-anchor="middle" x="671" y="322" style="fill:green;">new-residence</text>
		</g>
		<g id="edge46" class="edge">
			<title>Task: Move customer to new-residence.-&gt;new-residence</title>
			<path style="fill:none;stroke:green;" d="M528,119C585,144 613,163 654,227 665,245 669,270 671,289"/>
			<polygon style="fill:green;stroke:green;" points="675,289 671,299 668,289 675,289"/>
		</g>
		<g id="node44" class="node">
			<title>new-address</title>
			<text text-anchor="middle" x="602" y="250" style="fill:green;">new-address</text>
		</g>
		<g id="edge52" class="edge">
			<title>Task: Move customer to new-residence.-&gt;new-address</title>
			<path style="fill:none;stroke:green;" d="M490,119C513,145 554,190 579,219"/>
			<polygon style="fill:green;stroke:green;" points="582,217 586,227 577,222 582,217"/>
		</g>
		<g id="edge30" class="edge">
			<title>Task: Forward old customer-accounts to customer's new-billing-address.-&gt;new-billing-address</title>
			<path style="fill:none;stroke:green;" d="M393,246C378,250 278,277 206,297"/>
			<polygon style="fill:green;stroke:green;" points="207,300 196,300 205,294 207,300"/>
		</g>
		<g id="edge32" class="edge">
			<title>Task: Forward old customer-accounts to customer's new-billing-address.-&gt;customer-account</title>
			<path style="fill:none;stroke:green;" d="M393,246C384,251 343,275 311,294"/>
			<polygon style="fill:green;stroke:green;" points="312,297 302,299 309,291 312,297"/>
		</g>
		<g id="edge34" class="edge">
			<title>Task: Forward old customer-accounts to customer's new-billing-address.-&gt;customer</title>
			<path style="fill:none;stroke:green;" d="M397,246C404,251 436,275 462,293"/>
			<polygon style="fill:green;stroke:green;" points="464,290 470,299 460,296 464,290"/>
		</g>
		<g id="node34" class="node">
			<title>billing-address</title>
			<text text-anchor="middle" x="395" y="322" style="fill:green;">billing-address</text>
		</g>
		<g id="edge36" class="edge">
			<title>Task: Forward old customer-accounts to customer's new-billing-address.-&gt;billing-address</title>
			<path style="fill:none;stroke:green;" d="M395,247C395,254 395,272 395,289"/>
			<polygon style="fill:green;stroke:green;" points="399,289 395,299 392,289 399,289"/>
		</g>
		<g id="node6" class="node">
			<title>Signal: Customer has moved-in at new billing-address.</title>
			<text text-anchor="middle" x="243" y="178" style="fill:blue;">Signal: Customer has moved-in at new billing-address.</text>
		</g>
		<g id="edge6" class="edge">
			<title>Signal: Customer has moved-in at new billing-address.-&gt;Task: Forward old customer-accounts to customer's new-billing-address.</title>
			<path style="fill:none;stroke:black;" d="M281,191C315,207 362,229 384,240"/>
			<polygon style="fill:black;stroke:black;" points="385,237 393,244 382,243 385,237"/>
		</g>
		<g id="node8" class="node">
			<title>To do: 1</title>
			<ellipse cx="425" cy="173" rx="2" ry="2" style="fill:green;stroke:green;"/>
		</g>
		<g id="edge8" class="edge">
			<title>To do: 1-&gt;Task: Forward old customer-accounts to customer's new-billing-address.</title>
			<path style="fill:none;stroke:red;" d="M424,175C421,184 407,216 400,234"/>
			<polygon style="fill:red;stroke:red;" points="403,235 396,243 397,232 403,235"/>
		</g>
		<g id="node13" class="node">
			<title>Task: Install or prove requested energy-services.</title>
			<ellipse cx="777" cy="245" rx="2" ry="2" style="fill:green;stroke:green;"/>
		</g>
		<g id="edge12" class="edge">
			<title>Task: Start the energy-services at the customer's new-address.-&gt;Task: Install or prove requested energy-services.</title>
			<path style="fill:none;stroke:black;" d="M753,175C756,184 767,216 773,233"/>
			<polygon style="fill:black;stroke:black;" points="776,232 776,243 770,234 776,232"/>
		</g>
		<g id="edge70" class="edge">
			<title>Task: Start the energy-services at the customer's new-address.-&gt;energy-service</title>
			<path style="fill:none;stroke:green;" d="M754,173C790,175 1245,202 1324,299 1368,355 1284,357 899,387 899,387 899,387 899,387"/>
			<polygon style="fill:green;stroke:green;" points="899,390 889,388 899,384 899,390"/>
		</g>
		<g id="edge74" class="edge">
			<title>Task: Start the energy-services at the customer's new-address.-&gt;customer</title>
			<path style="fill:none;stroke:green;" d="M750,173C731,177 585,202 550,227 529,243 514,269 505,290"/>
			<polygon style="fill:green;stroke:green;" points="508,291 501,299 502,288 508,291"/>
		</g>
		<g id="edge72" class="edge">
			<title>Task: Start the energy-services at the customer's new-address.-&gt;new-address</title>
			<path style="fill:none;stroke:green;" d="M750,174C739,180 688,204 649,223"/>
			<polygon style="fill:green;stroke:green;" points="651,226 640,227 648,220 651,226"/>
		</g>
		<g id="node60" class="node">
			<title>deposit</title>
			<text text-anchor="middle" x="729" y="250" style="fill:green;">deposit</text>
		</g>
		<g id="edge76" class="edge">
			<title>Task: Start the energy-services at the customer's new-address.-&gt;deposit</title>
			<path style="fill:none;stroke:green;" d="M751,175C749,182 744,201 738,217"/>
			<polygon style="fill:green;stroke:green;" points="741,218 735,227 735,216 741,218"/>
		</g>
		<g id="node15" class="node">
			<title>Task: Install energy-service at residence.</title>
			<ellipse cx="739" cy="317" rx="2" ry="2" style="fill:green;stroke:green;"/>
		</g>
		<g id="edge14" class="edge">
			<title>Task: Install or prove requested energy-services.-&gt;Task: Install energy-service at residence.</title>
			<path style="fill:none;stroke:black;" d="M775,245C761,250 738,288 735,307"/>
			<polygon style="fill:black;stroke:black;" points="738,307 737,317 732,308 738,307"/>
		</g>
		<g id="edge16" class="edge">
			<title>Task: Install or prove requested energy-services.-&gt;Task: Install energy-service at residence.</title>
			<path style="fill:none;stroke:black;" d="M776,247C772,255 754,288 745,306"/>
			<polygon style="fill:black;stroke:black;" points="748,308 740,315 742,305 748,308"/>
		</g>
		<g id="edge18" class="edge">
			<title>Task: Install or prove requested energy-services.-&gt;Task: Install energy-service at residence.</title>
			<path style="fill:none;stroke:black;" d="M779,245C789,251 768,295 750,311"/>
			<polygon style="fill:black;stroke:black;" points="751,314 741,317 747,309 751,314"/>
		</g>
		<g id="edge58" class="edge">
			<title>Task: Install or prove requested energy-services.-&gt;energy-service</title>
			<path style="fill:none;stroke:green;" d="M779,245C786,247 808,252 827,255 833,257 1045,295 1050,299 1094,354 976,376 899,384"/>
			<polygon style="fill:green;stroke:green;" points="899,387 889,385 899,381 899,387"/>
		</g>
		<g id="edge62" class="edge">
			<title>Task: Install or prove requested energy-services.-&gt;customer</title>
			<path style="fill:none;stroke:green;" d="M776,247C775,251 771,259 766,263 747,276 610,299 538,310"/>
			<polygon style="fill:green;stroke:green;" points="538,313 528,312 537,307 538,313"/>
		</g>
		<g id="edge64" class="edge">
			<title>Task: Install or prove requested energy-services.-&gt;new-residence</title>
			<path style="fill:none;stroke:green;" d="M776,247C774,251 771,258 766,263 753,276 737,286 722,294"/>
			<polygon style="fill:green;stroke:green;" points="723,297 713,299 720,291 723,297"/>
		</g>
		<g id="node49" class="node">
			<title>gas-energy-service</title>
			<text text-anchor="middle" x="819" y="322" style="fill:green;">gas-energy-service</text>
		</g>
		<g id="edge60" class="edge">
			<title>Task: Install or prove requested energy-services.-&gt;gas-energy-service</title>
			<path style="fill:none;stroke:green;" d="M778,247C781,253 794,273 803,290"/>
			<polygon style="fill:green;stroke:green;" points="806,289 808,299 800,292 806,289"/>
		</g>
		<g id="node53" class="node">
			<title>electric-energy-service</title>
			<text text-anchor="middle" x="969" y="322" style="fill:green;">electric-energy-service</text>
		</g>
		<g id="edge66" class="edge">
			<title>Task: Install or prove requested energy-services.-&gt;electric-energy-service</title>
			<path style="fill:none;stroke:green;" d="M779,246C792,251 860,277 911,295"/>
			<polygon style="fill:green;stroke:green;" points="913,292 921,299 910,299 913,292"/>
		</g>
		<g id="node55" class="node">
			<title>interruptible-electric-energy-service</title>
			<text text-anchor="middle" x="1206" y="322" style="fill:green;">interruptible-electric-energy-service</text>
		</g>
		<g id="edge68" class="edge">
			<title>Task: Install or prove requested energy-services.-&gt;interruptible-electric-energy-service</title>
			<path style="fill:none;stroke:green;" d="M779,245C800,249 970,277 1089,297"/>
			<polygon style="fill:green;stroke:green;" points="1090,294 1099,299 1089,300 1090,294"/>
		</g>
		<g id="node18" class="node">
			<title>Cycle detected.</title>
			<text text-anchor="middle" x="636" y="394" style="fill:red;">Cycle detected.</text>
		</g>
		<g id="edge20" class="edge">
			<title>Task: Install energy-service at residence.-&gt;Cycle detected.</title>
			<path style="fill:none;stroke:red;" d="M738,319C736,323 733,330 728,335 716,347 700,358 686,366"/>
			<polygon style="fill:red;stroke:red;" points="687,369 677,371 684,363 687,369"/>
		</g>
		<g id="edge26" class="edge">
			<title>Task: Install energy-service at residence.-&gt;energy-service</title>
			<path style="fill:none;stroke:green;" d="M737,317C721,318 725,329 732,335 746,349 764,361 782,370"/>
			<polygon style="fill:green;stroke:green;" points="783,367 791,374 780,373 783,367"/>
		</g>
		<g id="edge38" class="edge">
			<title>Task: Install energy-service at residence.-&gt;energy-service</title>
			<path style="fill:none;stroke:green;" d="M740,319C741,323 745,330 750,335 762,347 778,358 792,366"/>
			<polygon style="fill:green;stroke:green;" points="794,363 801,371 791,369 794,363"/>
		</g>
		<g id="edge54" class="edge">
			<title>Task: Install energy-service at residence.-&gt;energy-service</title>
			<path style="fill:none;stroke:green;" d="M741,317C757,318 761,329 768,335 780,347 795,357 808,366"/>
			<polygon style="fill:green;stroke:green;" points="810,363 817,371 807,369 810,363"/>
		</g>
		<g id="node26" class="node">
			<title>residence</title>
			<text text-anchor="middle" x="739" y="394" style="fill:green;">residence</text>
		</g>
		<g id="edge28" class="edge">
			<title>Task: Install energy-service at residence.-&gt;residence</title>
			<path style="fill:none;stroke:green;" d="M737,317C729,320 724,342 726,361"/>
			<polygon style="fill:green;stroke:green;" points="729,361 727,371 723,361 729,361"/>
		</g>
		<g id="edge40" class="edge">
			<title>Task: Install energy-service at residence.-&gt;residence</title>
			<path style="fill:none;stroke:green;" d="M739,319C739,326 739,344 739,361"/>
			<polygon style="fill:green;stroke:green;" points="743,361 739,371 736,361 743,361"/>
		</g>
		<g id="edge56" class="edge">
			<title>Task: Install energy-service at residence.-&gt;residence</title>
			<path style="fill:none;stroke:green;" d="M741,317C750,320 754,342 752,361"/>
			<polygon style="fill:green;stroke:green;" points="755,361 751,371 749,361 755,361"/>
		</g>
		<g id="node20" class="node">
			<title>Signal: Customer has met deposit requirements.</title>
			<text text-anchor="middle" x="1061" y="106" style="fill:blue;">Signal: Customer has met deposit requirements.</text>
		</g>
		<g id="edge22" class="edge">
			<title>Signal: Customer has met deposit requirements.-&gt;Task: Start the energy-services at the customer's new-address.</title>
			<path style="fill:none;stroke:black;" d="M983,119C908,137 799,162 764,170"/>
			<polygon style="fill:black;stroke:black;" points="765,173 754,173 763,167 765,173"/>
		</g>
		<g id="node22" class="node">
			<title>Signal: Customer has possession at new-address.</title>
			<text text-anchor="middle" x="756" y="106" style="fill:blue;">Signal: Customer has possession at new-address.</text>
		</g>
		<g id="edge24" class="edge">
			<title>Signal: Customer has possession at new-address.-&gt;Task: Start the energy-services at the customer's new-address.</title>
			<path style="fill:none;stroke:black;" d="M755,119C754,132 754,149 753,161"/>
			<polygon style="fill:black;stroke:black;" points="756,161 752,171 750,161 756,161"/>
		</g>
		<g id="node62" class="node">
			<title>Work-flow</title>
			<ellipse cx="840" cy="461" rx="43" ry="18" style="fill:none;stroke:black;"/>
			<text text-anchor="middle" x="840" y="466">Work-flow</text>
		</g>
		<g id="edge78" class="edge">
			<title>energy-service-&gt;Work-flow</title>
			<path style="fill:none;stroke:blue;" d="M840,407C840,415 840,424 840,433"/>
			<polygon style="fill:blue;stroke:blue;" points="844,433 840,443 837,433 844,433"/>
		</g>
		<g id="node64" class="node">
			<title>Field</title>
			<ellipse cx="655" cy="461" rx="26" ry="18" style="fill:none;stroke:black;"/>
			<text text-anchor="middle" x="655" y="466">Field</text>
		</g>
		<g id="edge80" class="edge">
			<title>energy-service-&gt;Field</title>
			<path style="fill:none;stroke:blue;" d="M793,407C761,420 717,437 687,448"/>
			<polygon style="fill:blue;stroke:blue;" points="689,451 678,452 686,445 689,451"/>
		</g>
		<g id="node67" class="node">
			<title>Billing</title>
			<ellipse cx="333" cy="389" rx="31" ry="18" style="fill:none;stroke:black;"/>
			<text text-anchor="middle" x="333" y="394">Billing</text>
		</g>
		<g id="edge84" class="edge">
			<title>new-billing-address-&gt;Billing</title>
			<path style="fill:none;stroke:blue;" d="M183,335C218,348 265,364 296,376"/>
			<polygon style="fill:blue;stroke:blue;" points="297,373 306,379 295,379 297,373"/>
		</g>
		<g id="edge86" class="edge">
			<title>customer-account-&gt;Billing</title>
			<path style="fill:none;stroke:blue;" d="M287,335C295,344 304,355 312,364"/>
			<polygon style="fill:blue;stroke:blue;" points="315,362 319,372 310,367 315,362"/>
		</g>
		<g id="edge88" class="edge">
			<title>customer-&gt;Billing</title>
			<path style="fill:none;stroke:blue;" d="M462,332C434,345 395,361 367,374"/>
			<polygon style="fill:blue;stroke:blue;" points="369,377 358,378 366,371 369,377"/>
		</g>
		<g id="edge90" class="edge">
			<title>billing-address-&gt;Billing</title>
			<path style="fill:none;stroke:blue;" d="M379,335C371,344 362,355 354,364"/>
			<polygon style="fill:blue;stroke:blue;" points="356,367 347,372 351,362 356,367"/>
		</g>
		<g id="edge82" class="edge">
			<title>new-address-&gt;Field</title>
			<path style="fill:none;stroke:blue;" d="M592,263C576,295 550,360 576,407 585,426 605,439 622,448"/>
			<polygon style="fill:blue;stroke:blue;" points="623,445 631,452 620,451 623,445"/>
		</g>
	</g>
</svg>
