<?xml version="1.0" encoding="UTF-8" standalone="no"?>
<!DOCTYPE svg PUBLIC "-//W3C//DTD SVG 1.0//EN" "http://www.w3.org/TR/2001/REC-SVG-20010904/DTD/svg10.dtd">
<!-- Generated by dot version 1.13 (v16) (Mon August 23, 2004)
     For user: (admin) Richard Green - Admin   Title: wordProp    Pages: 1 -->
<svg xmlns="http://www.w3.org/2000/svg" width="1792pt" height="732pt" viewBox="-1 -1 1791 731">
	<g id="graph0" class="graph" style="font-family:Times-Roman;font-size:14.00;">
		<title>wordProp</title>
		<polygon style="fill:lightcyan;stroke:lightcyan;" points="0,729 0,-1 1790,-1 1790,729 0,729"/>
		<g id="node1" class="node">
			<title>GOAL</title>
			<polygon style="fill:none;stroke:black;" points="59,238 7,238 7,274 59,274 59,238"/>
			<text text-anchor="middle" x="33" y="261">GOAL</text>
		</g>
		<g id="node3" class="node">
			<title>All customer-accounts are forwarded and new energy-services started.</title>
			<polygon style="fill:none;stroke:black;" points="506,238 98,238 98,274 506,274 506,238"/>
			<text text-anchor="middle" x="302" y="261">All customer-accounts are forwarded and new energy-services started.</text>
		</g>
		<g id="edge2" class="edge">
			<title>GOAL-&gt;All customer-accounts are forwarded and new energy-services started.</title>
			<path style="fill:none;stroke:black;" d="M61,256C68,256 77,256 87,256"/>
			<polygon style="fill:black;stroke:black;" points="87,252 97,256 87,259 87,252"/>
		</g>
		<g id="node5" class="node">
			<title>Old customer-accounts are forwarded to new-billing-address.</title>
			<text text-anchor="middle" x="1083" y="123">Old customer-accounts are forwarded to new-billing-address.</text>
		</g>
		<g id="edge4" class="edge">
			<title>All customer-accounts are forwarded and new energy-services started.-&gt;Old customer-accounts are forwarded to new-billing-address.</title>
			<path style="fill:none;stroke:black;" d="M324,238C415,184 440,169 543,145 657,119 789,112 893,112"/>
			<polygon style="fill:black;stroke:black;" points="893,108 903,112 893,115 893,108"/>
		</g>
		<g id="node10" class="node">
			<title>Energy-services at old-address are re-assigned.</title>
			<text text-anchor="middle" x="705" y="177" style="fill:red;">Energy-services at old-address are re-assigned.</text>
		</g>
		<g id="edge8" class="edge">
			<title>All customer-accounts are forwarded and new energy-services started.-&gt;Energy-services at old-address are re-assigned.</title>
			<path style="fill:none;stroke:black;" d="M385,238C432,228 491,215 543,204 563,201 584,196 604,192"/>
			<polygon style="fill:black;stroke:black;" points="604,189 614,190 605,195 604,189"/>
		</g>
		<g id="node13" class="node">
			<title>Energy-services at new-address are started.</title>
			<text text-anchor="middle" x="705" y="665">Energy-services at new-address are started.</text>
		</g>
		<g id="edge12" class="edge">
			<title>All customer-accounts are forwarded and new energy-services started.-&gt;Energy-services at new-address are started.</title>
			<path style="fill:none;stroke:black;" d="M308,274C329,336 406,535 543,628 550,633 558,637 566,640"/>
			<polygon style="fill:black;stroke:black;" points="568,637 576,644 565,644 568,637"/>
		</g>
		<g id="node26" class="node">
			<title>energy-service</title>
			<text text-anchor="middle" x="1612" y="489" style="fill:green;">energy-service</text>
		</g>
		<g id="edge52" class="edge">
			<title>All customer-accounts are forwarded and new energy-services started.-&gt;energy-service</title>
			<path style="fill:none;stroke:green;" d="M324,274C724,492 849,520 1299,592 1399,607 1434,632 1525,592 1572,571 1578,551 1601,511"/>
			<polygon style="fill:green;stroke:green;" points="1598,509 1606,502 1604,512 1598,509"/>
		</g>
		<g id="node30" class="node">
			<title>new-billing-address</title>
			<text text-anchor="middle" x="1412" y="72" style="fill:green;">new-billing-address</text>
		</g>
		<g id="edge44" class="edge">
			<title>All customer-accounts are forwarded and new energy-services started.-&gt;new-billing-address</title>
			<path style="fill:none;stroke:green;" d="M314,238C317,233 320,228 324,224 409,135 427,94 543,53 689,4 1156,42 1338,59"/>
			<polygon style="fill:green;stroke:green;" points="1338,56 1348,60 1338,62 1338,56"/>
		</g>
		<g id="node32" class="node">
			<title>customer-account</title>
			<text text-anchor="middle" x="1412" y="180" style="fill:green;">customer-account</text>
		</g>
		<g id="edge46" class="edge">
			<title>All customer-accounts are forwarded and new energy-services started.-&gt;customer-account</title>
			<path style="fill:none;stroke:green;" d="M476,238C495,236 516,235 543,233 863,211 945,233 1263,199 1289,196 1319,192 1344,188"/>
			<polygon style="fill:green;stroke:green;" points="1344,185 1354,186 1345,191 1344,185"/>
		</g>
		<g id="node34" class="node">
			<title>customer</title>
			<text text-anchor="middle" x="1412" y="235" style="fill:green;">customer</text>
		</g>
		<g id="edge50" class="edge">
			<title>All customer-accounts are forwarded and new energy-services started.-&gt;customer</title>
			<path style="fill:none;stroke:green;" d="M507,250C714,245 1041,237 1324,231 1338,231 1354,231 1368,231"/>
			<polygon style="fill:green;stroke:green;" points="1368,227 1378,231 1368,234 1368,227"/>
		</g>
		<g id="node42" class="node">
			<title>new-residence</title>
			<text text-anchor="middle" x="1412" y="289" style="fill:green;">new-residence</text>
		</g>
		<g id="edge48" class="edge">
			<title>All customer-accounts are forwarded and new energy-services started.-&gt;new-residence</title>
			<path style="fill:none;stroke:green;" d="M507,261C766,268 1197,279 1354,283"/>
			<polygon style="fill:green;stroke:green;" points="1354,279 1364,283 1354,286 1354,279"/>
		</g>
		<g id="node46" class="node">
			<title>new-address</title>
			<text text-anchor="middle" x="1083" y="345" style="fill:green;">new-address</text>
		</g>
		<g id="edge54" class="edge">
			<title>All customer-accounts are forwarded and new energy-services started.-&gt;new-address</title>
			<path style="fill:none;stroke:green;" d="M371,274C419,286 485,300 543,308 591,315 902,331 1030,337"/>
			<polygon style="fill:green;stroke:green;" points="1030,334 1040,338 1030,340 1030,334"/>
		</g>
		<g id="edge32" class="edge">
			<title>Old customer-accounts are forwarded to new-billing-address.-&gt;new-billing-address</title>
			<path style="fill:none;stroke:green;" d="M1199,100C1245,93 1297,84 1338,78"/>
			<polygon style="fill:green;stroke:green;" points="1338,75 1348,77 1338,81 1338,75"/>
		</g>
		<g id="edge34" class="edge">
			<title>Old customer-accounts are forwarded to new-billing-address.-&gt;customer-account</title>
			<path style="fill:none;stroke:green;" d="M1206,136C1225,139 1245,142 1263,145 1289,149 1319,155 1344,161"/>
			<polygon style="fill:green;stroke:green;" points="1345,158 1354,163 1344,164 1345,158"/>
		</g>
		<g id="edge36" class="edge">
			<title>Old customer-accounts are forwarded to new-billing-address.-&gt;customer</title>
			<path style="fill:none;stroke:green;" d="M1247,136C1253,139 1258,142 1263,145 1289,162 1275,185 1299,202 1319,217 1346,224 1368,227"/>
			<polygon style="fill:green;stroke:green;" points="1368,224 1378,228 1368,230 1368,224"/>
		</g>
		<g id="node36" class="node">
			<title>billing-address</title>
			<text text-anchor="middle" x="1412" y="126" style="fill:green;">billing-address</text>
		</g>
		<g id="edge38" class="edge">
			<title>Old customer-accounts are forwarded to new-billing-address.-&gt;billing-address</title>
			<path style="fill:none;stroke:green;" d="M1263,120C1296,120 1326,120 1352,120"/>
			<polygon style="fill:green;stroke:green;" points="1352,116 1362,120 1352,123 1352,116"/>
		</g>
		<g id="node6" class="node">
			<title>Signal: Customer has moved-in at new billing-address.</title>
			<text text-anchor="middle" x="705" y="85" style="fill:blue;">Signal: Customer has moved-in at new billing-address.</text>
		</g>
		<g id="edge6" class="edge">
			<title>Signal: Customer has moved-in at new billing-address.-&gt;Old customer-accounts are forwarded to new-billing-address.</title>
			<path style="fill:none;stroke:black;" d="M867,96C876,97 885,98 895,99"/>
			<polygon style="fill:black;stroke:black;" points="895,96 905,100 895,102 895,96"/>
		</g>
		<g id="node8" class="node">
			<title>To do: 1</title>
			<text text-anchor="middle" x="1083" y="177" style="fill:red;">To do: 1</text>
		</g>
		<g id="edge10" class="edge">
			<title>Energy-services at old-address are re-assigned.-&gt;To do: 1</title>
			<path style="fill:none;stroke:red;" d="M845,172C915,172 994,172 1042,172"/>
			<polygon style="fill:red;stroke:red;" points="1042,168 1052,172 1042,175 1042,168"/>
		</g>
		<g id="node15" class="node">
			<title>Energy-services requested by the customer are all installed.</title>
			<text text-anchor="middle" x="1083" y="437">Energy-services requested by the customer are all installed.</text>
		</g>
		<g id="edge14" class="edge">
			<title>Energy-services at new-address are started.-&gt;Energy-services requested by the customer are all installed.</title>
			<path style="fill:none;stroke:black;" d="M735,642C802,601 968,501 1044,455"/>
			<polygon style="fill:black;stroke:black;" points="1043,452 1053,450 1046,458 1043,452"/>
		</g>
		<g id="edge72" class="edge">
			<title>Energy-services at new-address are started.-&gt;energy-service</title>
			<path style="fill:none;stroke:green;" d="M834,663C1050,666 1467,668 1525,636 1580,605 1581,574 1605,511"/>
			<polygon style="fill:green;stroke:green;" points="1602,510 1609,502 1608,513 1602,510"/>
		</g>
		<g id="edge76" class="edge">
			<title>Energy-services at new-address are started.-&gt;customer</title>
			<path style="fill:none;stroke:green;" d="M716,642C751,588 852,433 903,405 1044,326 1136,465 1263,367 1311,330 1268,282 1311,241 1326,227 1348,224 1368,224"/>
			<polygon style="fill:green;stroke:green;" points="1368,221 1378,225 1368,227 1368,221"/>
		</g>
		<g id="edge74" class="edge">
			<title>Energy-services at new-address are started.-&gt;new-address</title>
			<path style="fill:none;stroke:green;" d="M712,642C732,590 797,441 903,372 941,348 991,340 1030,339"/>
			<polygon style="fill:green;stroke:green;" points="1030,335 1040,339 1030,342 1030,335"/>
		</g>
		<g id="node62" class="node">
			<title>deposit</title>
			<text text-anchor="middle" x="1083" y="711" style="fill:green;">deposit</text>
		</g>
		<g id="edge78" class="edge">
			<title>Energy-services at new-address are started.-&gt;deposit</title>
			<path style="fill:none;stroke:green;" d="M834,676C909,684 996,695 1045,702"/>
			<polygon style="fill:green;stroke:green;" points="1045,699 1055,703 1045,705 1045,699"/>
		</g>
		<g id="node17" class="node">
			<title>Energy-service installed at residence.</title>
			<text text-anchor="middle" x="1412" y="381">Energy-service installed at residence.</text>
		</g>
		<g id="edge16" class="edge">
			<title>Energy-services requested by the customer are all installed.-&gt;Energy-service installed at residence.</title>
			<path style="fill:none;stroke:black;" d="M1258,416C1293,410 1327,403 1355,396"/>
			<polygon style="fill:black;stroke:black;" points="1355,393 1365,394 1356,399 1355,393"/>
		</g>
		<g id="edge18" class="edge">
			<title>Energy-services requested by the customer are all installed.-&gt;Energy-service installed at residence.</title>
			<path style="fill:none;stroke:black;" d="M1189,414C1224,409 1262,401 1297,396"/>
			<polygon style="fill:black;stroke:black;" points="1297,393 1307,394 1298,399 1297,393"/>
		</g>
		<g id="edge20" class="edge">
			<title>Energy-services requested by the customer are all installed.-&gt;Energy-service installed at residence.</title>
			<path style="fill:none;stroke:black;" d="M1131,414C1172,404 1234,392 1289,383"/>
			<polygon style="fill:black;stroke:black;" points="1289,380 1299,382 1289,386 1289,380"/>
		</g>
		<g id="edge60" class="edge">
			<title>Energy-services requested by the customer are all installed.-&gt;energy-service</title>
			<path style="fill:none;stroke:green;" d="M1103,450C1185,509 1202,538 1299,565 1396,591 1432,601 1525,565 1553,554 1577,529 1593,510"/>
			<polygon style="fill:green;stroke:green;" points="1590,508 1599,502 1596,512 1590,508"/>
		</g>
		<g id="edge64" class="edge">
			<title>Energy-services requested by the customer are all installed.-&gt;customer</title>
			<path style="fill:none;stroke:green;" d="M1244,414C1251,410 1257,405 1263,400 1311,355 1253,304 1299,257 1317,240 1345,233 1368,230"/>
			<polygon style="fill:green;stroke:green;" points="1368,227 1378,229 1368,233 1368,227"/>
		</g>
		<g id="edge66" class="edge">
			<title>Energy-services requested by the customer are all installed.-&gt;new-residence</title>
			<path style="fill:none;stroke:green;" d="M1235,414C1245,410 1254,405 1263,400 1287,385 1279,367 1299,349 1317,332 1341,317 1362,307"/>
			<polygon style="fill:green;stroke:green;" points="1361,304 1371,302 1364,310 1361,304"/>
		</g>
		<g id="node51" class="node">
			<title>gas-energy-service</title>
			<text text-anchor="middle" x="1412" y="435" style="fill:green;">gas-energy-service</text>
		</g>
		<g id="edge62" class="edge">
			<title>Energy-services requested by the customer are all installed.-&gt;gas-energy-service</title>
			<path style="fill:none;stroke:green;" d="M1258,431C1287,431 1316,430 1341,430"/>
			<polygon style="fill:green;stroke:green;" points="1341,426 1351,430 1341,433 1341,426"/>
		</g>
		<g id="node55" class="node">
			<title>electric-energy-service</title>
			<text text-anchor="middle" x="1412" y="489" style="fill:green;">electric-energy-service</text>
		</g>
		<g id="edge68" class="edge">
			<title>Energy-services requested by the customer are all installed.-&gt;electric-energy-service</title>
			<path style="fill:none;stroke:green;" d="M1197,450C1240,456 1290,465 1330,471"/>
			<polygon style="fill:green;stroke:green;" points="1331,468 1340,473 1330,474 1331,468"/>
		</g>
		<g id="node57" class="node">
			<title>interruptible-electric-energy-service</title>
			<text text-anchor="middle" x="1412" y="543" style="fill:green;">interruptible-electric-energy-service</text>
		</g>
		<g id="edge70" class="edge">
			<title>Energy-services requested by the customer are all installed.-&gt;interruptible-electric-energy-service</title>
			<path style="fill:none;stroke:green;" d="M1128,450C1172,467 1240,493 1299,511 1307,513 1315,515 1323,517"/>
			<polygon style="fill:green;stroke:green;" points="1324,514 1333,520 1322,520 1324,514"/>
		</g>
		<g id="node20" class="node">
			<title>Cycle detected.</title>
			<text text-anchor="middle" x="1612" y="435" style="fill:red;">Cycle detected.</text>
		</g>
		<g id="edge22" class="edge">
			<title>Energy-service installed at residence.-&gt;Cycle detected.</title>
			<path style="fill:none;stroke:red;" d="M1491,394C1503,397 1514,400 1525,403 1534,405 1543,407 1551,410"/>
			<polygon style="fill:red;stroke:red;" points="1552,407 1561,413 1550,413 1552,407"/>
		</g>
		<g id="edge28" class="edge">
			<title>Energy-service installed at residence.-&gt;energy-service</title>
			<path style="fill:none;stroke:green;" d="M1453,394C1476,399 1504,406 1525,421 1546,435 1542,451 1556,469"/>
			<polygon style="fill:green;stroke:green;" points="1559,467 1563,477 1554,472 1559,467"/>
		</g>
		<g id="edge40" class="edge">
			<title>Energy-service installed at residence.-&gt;energy-service</title>
			<path style="fill:none;stroke:green;" d="M1510,394C1515,397 1520,400 1525,403 1549,419 1540,437 1561,457 1562,458 1563,459 1565,460"/>
			<polygon style="fill:green;stroke:green;" points="1567,457 1573,466 1563,463 1567,457"/>
		</g>
		<g id="edge56" class="edge">
			<title>Energy-service installed at residence.-&gt;energy-service</title>
			<path style="fill:none;stroke:green;" d="M1525,385C1549,401 1540,419 1561,439 1570,447 1582,453 1592,460"/>
			<polygon style="fill:green;stroke:green;" points="1594,457 1600,466 1590,463 1594,457"/>
		</g>
		<g id="node28" class="node">
			<title>residence</title>
			<text text-anchor="middle" x="1612" y="381" style="fill:green;">residence</text>
		</g>
		<g id="edge30" class="edge">
			<title>Energy-service installed at residence.-&gt;residence</title>
			<path style="fill:none;stroke:green;" d="M1525,389C1540,389 1554,388 1567,387"/>
			<polygon style="fill:green;stroke:green;" points="1567,384 1577,386 1567,390 1567,384"/>
		</g>
		<g id="edge42" class="edge">
			<title>Energy-service installed at residence.-&gt;residence</title>
			<path style="fill:none;stroke:green;" d="M1525,376C1540,376 1554,376 1567,376"/>
			<polygon style="fill:green;stroke:green;" points="1567,372 1577,376 1567,379 1567,372"/>
		</g>
		<g id="edge58" class="edge">
			<title>Energy-service installed at residence.-&gt;residence</title>
			<path style="fill:none;stroke:green;" d="M1525,363C1540,363 1554,364 1567,365"/>
			<polygon style="fill:green;stroke:green;" points="1567,362 1577,366 1567,368 1567,362"/>
		</g>
		<g id="node22" class="node">
			<title>Signal: Customer has met deposit requirements.</title>
			<text text-anchor="middle" x="302" y="638" style="fill:blue;">Signal: Customer has met deposit requirements.</text>
		</g>
		<g id="edge24" class="edge">
			<title>Signal: Customer has met deposit requirements.-&gt;Energy-services at new-address are started.</title>
			<path style="fill:none;stroke:black;" d="M444,643C484,646 526,649 566,651"/>
			<polygon style="fill:black;stroke:black;" points="566,647 576,651 566,654 566,647"/>
		</g>
		<g id="node24" class="node">
			<title>Signal: Customer has possession at new-address.</title>
			<text text-anchor="middle" x="302" y="692" style="fill:blue;">Signal: Customer has possession at new-address.</text>
		</g>
		<g id="edge26" class="edge">
			<title>Signal: Customer has possession at new-address.-&gt;Energy-services at new-address are started.</title>
			<path style="fill:none;stroke:black;" d="M447,677C486,674 527,671 566,670"/>
			<polygon style="fill:black;stroke:black;" points="566,667 576,669 566,673 566,667"/>
		</g>
		<g id="node64" class="node">
			<title>Work-flow</title>
			<ellipse cx="1742" cy="484" rx="43" ry="18" style="fill:none;stroke:black;"/>
			<text text-anchor="middle" x="1742" y="489">Work-flow</text>
		</g>
		<g id="edge80" class="edge">
			<title>energy-service-&gt;Work-flow</title>
			<path style="fill:none;stroke:blue;" d="M1661,484C1670,484 1679,484 1689,484"/>
			<polygon style="fill:blue;stroke:blue;" points="1689,480 1699,484 1689,487 1689,480"/>
		</g>
		<g id="node66" class="node">
			<title>Field</title>
			<ellipse cx="1742" cy="380" rx="26" ry="18" style="fill:none;stroke:black;"/>
			<text text-anchor="middle" x="1742" y="385">Field</text>
		</g>
		<g id="edge82" class="edge">
			<title>energy-service-&gt;Field</title>
			<path style="fill:none;stroke:blue;" d="M1650,466C1654,463 1659,460 1663,457 1684,442 1706,420 1721,404"/>
			<polygon style="fill:blue;stroke:blue;" points="1719,401 1728,396 1724,406 1719,401"/>
		</g>
		<g id="node69" class="node">
			<title>Billing</title>
			<ellipse cx="1612" cy="148" rx="31" ry="18" style="fill:none;stroke:black;"/>
			<text text-anchor="middle" x="1612" y="153">Billing</text>
		</g>
		<g id="edge86" class="edge">
			<title>new-billing-address-&gt;Billing</title>
			<path style="fill:none;stroke:blue;" d="M1476,79C1492,83 1510,88 1525,94 1546,103 1568,116 1584,127"/>
			<polygon style="fill:blue;stroke:blue;" points="1587,125 1593,133 1583,130 1587,125"/>
		</g>
		<g id="edge88" class="edge">
			<title>customer-account-&gt;Billing</title>
			<path style="fill:none;stroke:blue;" d="M1470,167C1502,163 1541,157 1570,153"/>
			<polygon style="fill:blue;stroke:blue;" points="1570,150 1580,152 1570,156 1570,150"/>
		</g>
		<g id="edge90" class="edge">
			<title>customer-&gt;Billing</title>
			<path style="fill:none;stroke:blue;" d="M1446,225C1469,221 1500,213 1525,202 1546,194 1568,180 1584,169"/>
			<polygon style="fill:blue;stroke:blue;" points="1583,166 1593,163 1587,171 1583,166"/>
		</g>
		<g id="edge92" class="edge">
			<title>billing-address-&gt;Billing</title>
			<path style="fill:none;stroke:blue;" d="M1462,128C1495,132 1538,139 1570,143"/>
			<polygon style="fill:blue;stroke:blue;" points="1570,140 1580,144 1570,146 1570,140"/>
		</g>
		<g id="edge84" class="edge">
			<title>new-address-&gt;Field</title>
			<path style="fill:none;stroke:blue;" d="M1126,336C1223,327 1466,311 1663,349 1679,352 1697,358 1711,365"/>
			<polygon style="fill:blue;stroke:blue;" points="1712,362 1720,369 1709,368 1712,362"/>
		</g>
	</g>
</svg>
