<?xml version="1.0" encoding="UTF-8" standalone="no"?>
<!DOCTYPE svg PUBLIC "-//W3C//DTD SVG 1.0//EN" "http://www.w3.org/TR/2001/REC-SVG-20010904/DTD/svg10.dtd">
<!-- Generated by dot version 1.13 (v16) (Mon August 23, 2004)
     For user: (admin) Richard Green - Admin   Title: taskTree    Pages: 1 -->
<svg xmlns="http://www.w3.org/2000/svg" width="2512pt" height="504pt" viewBox="-1 -1 2511 503">
	<g id="graph0" class="graph" style="font-family:Times-Roman;font-size:14.00;">
		<title>taskTree</title>
		<polygon style="fill:antiquewhite;stroke:antiquewhite;" points="0,501 0,-1 2510,-1 2510,501 0,501"/>
		<text text-anchor="middle" x="1255" y="489">*** 1 Missing Frames. ***</text>
		<g id="node1" class="node">
			<title>All customer-accounts are forwarded and new energy-services started.</title>
			<polygon style="fill:white;stroke:black;" points="1630,220 1222,220 1222,256 1630,256 1630,220"/>
			<text text-anchor="middle" x="1426" y="243">All customer-accounts are forwarded and new energy-services started.</text>
		</g>
		<g id="node2" class="node">
			<title>Old customer-accounts are forwarded to new-billing-address.</title>
			<polygon style="fill:white;stroke:black;" points="1184,166 826,166 826,202 1184,202 1184,166"/>
			<text text-anchor="middle" x="1005" y="189">Old customer-accounts are forwarded to new-billing-address.</text>
		</g>
		<g id="edge2" class="edge">
			<title>Old customer-accounts are forwarded to new-billing-address.-&gt;All customer-accounts are forwarded and new energy-services started.</title>
			<path style="fill:none;stroke:black;" d="M1145,202C1187,208 1232,213 1274,219"/>
			<polygon style="fill:black;stroke:black;" points="1274,216 1284,220 1274,222 1274,216"/>
		</g>
		<g id="node31" class="node">
			<title>Billing</title>
			<ellipse cx="1426" cy="184" rx="31" ry="18" style="fill:white;stroke:blue;"/>
			<text text-anchor="middle" x="1426" y="189" style="fill:blue;">Billing</text>
		</g>
		<g id="edge30" class="edge">
			<title>Old customer-accounts are forwarded to new-billing-address.-&gt;Billing</title>
			<path style="fill:none;stroke:blue;" d="M1185,184C1258,184 1336,184 1383,184"/>
			<polygon style="fill:blue;stroke:blue;" points="1383,180 1393,184 1383,187 1383,180"/>
		</g>
		<g id="node4" class="node">
			<title>Customer has moved-in at new billing-address.</title>
			<polygon style="fill:white;stroke:black;" points="741,166 461,166 461,202 741,202 741,166"/>
			<text text-anchor="middle" x="601" y="189">Customer has moved-in at new billing-address.</text>
		</g>
		<g id="edge4" class="edge">
			<title>Customer has moved-in at new billing-address.-&gt;Old customer-accounts are forwarded to new-billing-address.</title>
			<path style="fill:none;stroke:black;" d="M741,184C765,184 790,184 815,184"/>
			<polygon style="fill:black;stroke:black;" points="815,180 825,184 815,187 815,180"/>
		</g>
		<g id="node6" class="node">
			<title>Signal 1: [Signal from Customer]</title>
			<polygon style="fill:palegreen;stroke:palegreen;" points="292,166 90,166 90,202 292,202 292,166"/>
			<text text-anchor="middle" x="191" y="189">Signal 1: [Signal from Customer]</text>
		</g>
		<g id="edge6" class="edge">
			<title>Signal 1: [Signal from Customer]-&gt;Customer has moved-in at new billing-address.</title>
			<path style="fill:none;stroke:green;" d="M293,184C341,184 399,184 451,184"/>
			<polygon style="fill:green;stroke:green;" points="451,180 461,184 451,187 451,180"/>
		</g>
		<g id="node8" class="node">
			<title>Energy-services at old-address are re-assigned.</title>
			<polygon style="fill:white;stroke:black;" points="1143,220 867,220 867,256 1143,256 1143,220"/>
			<text text-anchor="middle" x="1005" y="243">Energy-services at old-address are re-assigned.</text>
		</g>
		<g id="edge8" class="edge">
			<title>Energy-services at old-address are re-assigned.-&gt;All customer-accounts are forwarded and new energy-services started.</title>
			<path style="fill:none;stroke:black;" d="M1145,238C1166,238 1188,238 1211,238"/>
			<polygon style="fill:black;stroke:black;" points="1211,234 1221,238 1211,241 1211,234"/>
		</g>
		<g id="node10" class="node">
			<title>To do: 1</title>
			<polygon style="fill:white;stroke:white;" points="632,220 570,220 570,256 632,256 632,220"/>
			<text text-anchor="middle" x="601" y="243" style="fill:red;">To do: 1</text>
		</g>
		<g id="edge10" class="edge">
			<title>To do: 1-&gt;Energy-services at old-address are re-assigned.</title>
			<path style="fill:none;stroke:red;" d="M632,238C680,238 774,238 855,238"/>
			<polygon style="fill:red;stroke:red;" points="855,234 865,238 855,241 855,234"/>
		</g>
		<g id="node12" class="node">
			<title>Energy-services at new-address are started.</title>
			<polygon style="fill:white;stroke:black;" points="1133,321 877,321 877,357 1133,357 1133,321"/>
			<text text-anchor="middle" x="1005" y="344">Energy-services at new-address are started.</text>
		</g>
		<g id="edge12" class="edge">
			<title>Energy-services at new-address are started.-&gt;All customer-accounts are forwarded and new energy-services started.</title>
			<path style="fill:none;stroke:black;" d="M1080,321C1153,304 1264,276 1341,258"/>
			<polygon style="fill:black;stroke:black;" points="1341,255 1351,256 1342,261 1341,255"/>
		</g>
		<g id="node39" class="node">
			<title>Field</title>
			<ellipse cx="1426" cy="339" rx="26" ry="18" style="fill:white;stroke:blue;"/>
			<text text-anchor="middle" x="1426" y="344" style="fill:blue;">Field</text>
		</g>
		<g id="edge38" class="edge">
			<title>Energy-services at new-address are started.-&gt;Field</title>
			<path style="fill:none;stroke:blue;" d="M1134,339C1221,339 1331,339 1388,339"/>
			<polygon style="fill:blue;stroke:blue;" points="1388,335 1398,339 1388,342 1388,335"/>
		</g>
		<g id="node14" class="node">
			<title>Energy-services requested by the customer are all installed.</title>
			<polygon style="fill:white;stroke:black;" points="774,281 428,281 428,317 774,317 774,281"/>
			<text text-anchor="middle" x="601" y="304">Energy-services requested by the customer are all installed.</text>
		</g>
		<g id="edge14" class="edge">
			<title>Energy-services requested by the customer are all installed.-&gt;Energy-services at new-address are started.</title>
			<path style="fill:none;stroke:black;" d="M775,316C805,319 837,322 866,325"/>
			<polygon style="fill:black;stroke:black;" points="866,322 876,326 866,328 866,322"/>
		</g>
		<g id="node16" class="node">
			<title>Electric-energy-service installed at new-residence.</title>
			<polygon style="fill:white;stroke:black;" points="339,220 43,220 43,256 339,256 339,220"/>
			<text text-anchor="middle" x="191" y="243">Electric-energy-service installed at new-residence.</text>
		</g>
		<g id="edge16" class="edge">
			<title>Electric-energy-service installed at new-residence.-&gt;Energy-services requested by the customer are all installed.</title>
			<path style="fill:none;stroke:black;" d="M315,256C336,259 357,262 377,265 408,270 442,275 473,280"/>
			<polygon style="fill:black;stroke:black;" points="473,277 483,281 473,283 473,277"/>
		</g>
		<g id="node18" class="node">
			<title>Energy-service installed at residence.</title>
			<polygon style="fill:white;stroke:black;" points="302,112 80,112 80,148 302,148 302,112"/>
			<text text-anchor="middle" x="191" y="135">Energy-service installed at residence.</text>
		</g>
		<g id="node46" class="node">
			<title>Workflow</title>
			<ellipse cx="601" cy="130" rx="40" ry="18" style="fill:white;stroke:blue;"/>
			<text text-anchor="middle" x="601" y="135" style="fill:blue;">Workflow</text>
		</g>
		<g id="edge44" class="edge">
			<title>Energy-service installed at residence.-&gt;Workflow</title>
			<path style="fill:none;stroke:blue;" d="M304,130C384,130 488,130 550,130"/>
			<polygon style="fill:blue;stroke:blue;" points="550,126 560,130 550,133 550,126"/>
		</g>
		<g id="node19" class="node">
			<title>Interruptible-electric-energy-service installed at new-residence.</title>
			<polygon style="fill:white;stroke:black;" points="376,274 6,274 6,310 376,310 376,274"/>
			<text text-anchor="middle" x="191" y="297">Interruptible-electric-energy-service installed at new-residence.</text>
		</g>
		<g id="edge18" class="edge">
			<title>Interruptible-electric-energy-service installed at new-residence.-&gt;Energy-services requested by the customer are all installed.</title>
			<path style="fill:none;stroke:black;" d="M377,295C390,295 403,296 416,296"/>
			<polygon style="fill:black;stroke:black;" points="416,292 426,296 416,299 416,292"/>
		</g>
		<g id="node21" class="node">
			<title>Gas-energy-service installed at new-residence.</title>
			<polygon style="fill:white;stroke:black;" points="329,328 53,328 53,364 329,364 329,328"/>
			<text text-anchor="middle" x="191" y="351">Gas-energy-service installed at new-residence.</text>
		</g>
		<g id="edge20" class="edge">
			<title>Gas-energy-service installed at new-residence.-&gt;Energy-services requested by the customer are all installed.</title>
			<path style="fill:none;stroke:black;" d="M330,330C363,326 398,322 432,318"/>
			<polygon style="fill:black;stroke:black;" points="432,315 442,317 432,321 432,315"/>
		</g>
		<g id="node23" class="node">
			<title>Customer has met deposit requirements.</title>
			<polygon style="fill:white;stroke:black;" points="721,362 481,362 481,398 721,398 721,362"/>
			<text text-anchor="middle" x="601" y="385">Customer has met deposit requirements.</text>
		</g>
		<g id="edge22" class="edge">
			<title>Customer has met deposit requirements.-&gt;Energy-services at new-address are started.</title>
			<path style="fill:none;stroke:black;" d="M722,368C768,363 819,358 866,353"/>
			<polygon style="fill:black;stroke:black;" points="866,350 876,352 866,356 866,350"/>
		</g>
		<g id="node25" class="node">
			<title>Signal 2: [Signal from payments.]</title>
			<polygon style="fill:palegreen;stroke:palegreen;" points="294,382 88,382 88,418 294,418 294,382"/>
			<text text-anchor="middle" x="191" y="405">Signal 2: [Signal from payments.]</text>
		</g>
		<g id="edge24" class="edge">
			<title>Signal 2: [Signal from payments.]-&gt;Customer has met deposit requirements.</title>
			<path style="fill:none;stroke:green;" d="M294,395C348,392 413,389 470,387"/>
			<polygon style="fill:green;stroke:green;" points="470,384 480,386 470,390 470,384"/>
		</g>
		<g id="node27" class="node">
			<title>Customer has possession at new-address.</title>
			<polygon style="fill:white;stroke:black;" points="723,429 479,429 479,465 723,465 723,429"/>
			<text text-anchor="middle" x="601" y="452">Customer has possession at new-address.</text>
		</g>
		<g id="edge26" class="edge">
			<title>Customer has possession at new-address.-&gt;Energy-services at new-address are started.</title>
			<path style="fill:none;stroke:black;" d="M693,429C724,423 758,415 789,407 842,393 900,375 942,360"/>
			<polygon style="fill:black;stroke:black;" points="941,357 952,357 943,363 941,357"/>
		</g>
		<g id="node29" class="node">
			<title>Signal 3: [Signal from Customer.]</title>
			<polygon style="fill:palegreen;stroke:palegreen;" points="294,436 88,436 88,472 294,472 294,436"/>
			<text text-anchor="middle" x="191" y="459">Signal 3: [Signal from Customer.]</text>
		</g>
		<g id="edge28" class="edge">
			<title>Signal 3: [Signal from Customer.]-&gt;Customer has possession at new-address.</title>
			<path style="fill:none;stroke:green;" d="M294,452C347,451 411,450 467,449"/>
			<polygon style="fill:green;stroke:green;" points="467,445 477,449 467,452 467,445"/>
		</g>
		<g id="node33" class="node">
			<title>Change to new-billing-address for all the customer's customer-accounts.</title>
			<polygon style="fill:white;stroke:blue;" points="2087,166 1667,166 1667,202 2087,202 2087,166"/>
			<text text-anchor="middle" x="1877" y="189" style="fill:blue;">Change to new-billing-address for all the customer's customer-accounts.</text>
		</g>
		<g id="edge32" class="edge">
			<title>Billing-&gt;Change to new-billing-address for all the customer's customer-accounts.</title>
			<path style="fill:none;stroke:blue;" d="M1459,184C1502,184 1580,184 1657,184"/>
			<polygon style="fill:blue;stroke:blue;" points="1657,180 1667,184 1657,187 1657,180"/>
		</g>
		<g id="node35" class="node">
			<title>For each of the customer's customer-accounts:</title>
			<polygon style="fill:white;stroke:white;" points="2451,139 2177,139 2177,175 2451,175 2451,139"/>
			<text text-anchor="middle" x="2314" y="162" style="fill:blue;">For each of the customer's customer-accounts:</text>
		</g>
		<g id="edge34" class="edge">
			<title>Change to new-billing-address for all the customer's customer-accounts.-&gt;For each of the customer's customer-accounts:</title>
			<path style="fill:none;stroke:blue;" d="M2087,171C2113,169 2141,167 2166,166"/>
			<polygon style="fill:blue;stroke:blue;" points="2166,163 2176,165 2166,169 2166,163"/>
		</g>
		<g id="node37" class="node">
			<title>Change customer-account billing-address to new-billing-address.</title>
			<polygon style="fill:white;stroke:white;" points="2503,193 2125,193 2125,229 2503,229 2503,193"/>
			<text text-anchor="middle" x="2314" y="216" style="fill:blue;">Change customer-account billing-address to new-billing-address.</text>
		</g>
		<g id="edge36" class="edge">
			<title>Change to new-billing-address for all the customer's customer-accounts.-&gt;Change customer-account billing-address to new-billing-address.</title>
			<path style="fill:none;stroke:blue;" d="M2087,197C2096,198 2104,198 2113,199"/>
			<polygon style="fill:blue;stroke:blue;" points="2113,195 2123,199 2113,202 2113,195"/>
		</g>
		<g id="node41" class="node">
			<title>Start requested energy-services at new-address.</title>
			<polygon style="fill:white;stroke:blue;" points="2017,294 1737,294 1737,330 2017,330 2017,294"/>
			<text text-anchor="middle" x="1877" y="317" style="fill:blue;">Start requested energy-services at new-address.</text>
		</g>
		<g id="edge40" class="edge">
			<title>Field-&gt;Start requested energy-services at new-address.</title>
			<path style="fill:none;stroke:blue;" d="M1454,337C1507,334 1628,327 1726,321"/>
			<polygon style="fill:blue;stroke:blue;" points="1726,318 1736,320 1726,324 1726,318"/>
		</g>
		<g id="node54" class="node">
			<title>Dispatch crew to install new energy-service at time of appointment.</title>
			<polygon style="fill:white;stroke:white;" points="2074,348 1680,348 1680,384 2074,384 2074,348"/>
			<text text-anchor="middle" x="1877" y="371" style="fill:blue;">Dispatch crew to install new energy-service at time of appointment.</text>
		</g>
		<g id="edge50" class="edge">
			<title>Field-&gt;Dispatch crew to install new energy-service at time of appointment.</title>
			<path style="fill:none;stroke:blue;" d="M1454,341C1497,344 1585,349 1669,353"/>
			<polygon style="fill:blue;stroke:blue;" points="1669,350 1679,354 1669,356 1669,350"/>
		</g>
		<g id="node43" class="node">
			<title>Field-Worker</title>
			<ellipse cx="191" cy="76" rx="50" ry="18" style="fill:white;stroke:blue;"/>
			<text text-anchor="middle" x="191" y="81" style="fill:blue;">Field-Worker</text>
		</g>
		<g id="node45" class="node">
			<title>Turn-on energy-service per appointment.</title>
			<polygon style="fill:white;stroke:white;" points="723,58 479,58 479,94 723,94 723,58"/>
			<text text-anchor="middle" x="601" y="81" style="fill:blue;">Turn-on energy-service per appointment.</text>
		</g>
		<g id="edge42" class="edge">
			<title>Field-Worker-&gt;Turn-on energy-service per appointment.</title>
			<path style="fill:none;stroke:blue;" d="M242,76C298,76 391,76 468,76"/>
			<polygon style="fill:blue;stroke:blue;" points="468,72 478,76 468,79 468,72"/>
		</g>
		<g id="node48" class="node">
			<title>Install new energy-service at location.</title>
			<polygon style="fill:white;stroke:blue;" points="1119,112 891,112 891,148 1119,148 1119,112"/>
			<text text-anchor="middle" x="1005" y="135" style="fill:blue;">Install new energy-service at location.</text>
		</g>
		<g id="edge46" class="edge">
			<title>Workflow-&gt;Install new energy-service at location.</title>
			<path style="fill:none;stroke:blue;" d="M642,130C698,130 798,130 880,130"/>
			<polygon style="fill:blue;stroke:blue;" points="880,126 890,130 880,133 880,126"/>
		</g>
		<g id="node50" class="node">
			<title>Call-center</title>
			<ellipse cx="191" cy="22" rx="44" ry="18" style="fill:white;stroke:blue;"/>
			<text text-anchor="middle" x="191" y="27" style="fill:blue;">Call-center</text>
		</g>
		<g id="node52" class="node">
			<title>Make an appointment for the installation of new energy-service.</title>
			<polygon style="fill:white;stroke:white;" points="788,4 414,4 414,40 788,40 788,4"/>
			<text text-anchor="middle" x="601" y="27" style="fill:blue;">Make an appointment for the installation of new energy-service.</text>
		</g>
		<g id="edge48" class="edge">
			<title>Call-center-&gt;Make an appointment for the installation of new energy-service.</title>
			<path style="fill:none;stroke:blue;" d="M235,22C276,22 340,22 403,22"/>
			<polygon style="fill:blue;stroke:blue;" points="403,18 413,22 403,25 403,18"/>
		</g>
	</g>
</svg>
