<?xml version="1.0" encoding="UTF-8" standalone="no"?>
<!DOCTYPE svg PUBLIC "-//W3C//DTD SVG 1.0//EN" "http://www.w3.org/TR/2001/REC-SVG-20010904/DTD/svg10.dtd">
<!-- Generated by dot version 1.13 (v16) (Mon August 23, 2004)
     For user: (admin) Richard Green - Admin   Title: wordProp    Pages: 1 -->
<svg xmlns="http://www.w3.org/2000/svg" width="2004pt" height="480pt" viewBox="-1 -1 2003 479">
	<g id="graph0" class="graph" style="font-family:Times-Roman;font-size:14.00;">
		<title>wordProp</title>
		<g id="node1" class="node">
			<title>GOAL</title>
			<polygon style="fill:none;stroke:black;" points="884,4 832,4 832,40 884,40 884,4"/>
			<text text-anchor="middle" x="858" y="27">GOAL</text>
		</g>
		<g id="node3" class="node">
			<title>All customer-accounts are forwarded and new energy-services started.</title>
			<polygon style="fill:none;stroke:black;" points="1062,76 654,76 654,112 1062,112 1062,76"/>
			<text text-anchor="middle" x="858" y="99">All customer-accounts are forwarded and new energy-services started.</text>
		</g>
		<g id="edge2" class="edge">
			<title>GOAL-&gt;All customer-accounts are forwarded and new energy-services started.</title>
			<path style="fill:none;stroke:black;" d="M858,40C858,48 858,57 858,66"/>
			<polygon style="fill:black;stroke:black;" points="862,66 858,76 855,66 862,66"/>
		</g>
		<g id="node6" class="node">
			<title>Energy-services at old-residence are re-assigned.</title>
			<text text-anchor="middle" x="808" y="171" style="fill:red;">Energy-services at old-residence are re-assigned.</text>
		</g>
		<g id="edge4" class="edge">
			<title>All customer-accounts are forwarded and new energy-services started.-&gt;Energy-services at old-residence are re-assigned.</title>
			<path style="fill:none;stroke:black;" d="M845,112C840,120 833,130 827,140"/>
			<polygon style="fill:black;stroke:black;" points="830,142 821,148 824,138 830,142"/>
		</g>
		<g id="node9" class="node">
			<title>Old customer-accounts are forwarded from old-billing-address to new-billing-address.</title>
			<text text-anchor="middle" x="320" y="171">Old customer-accounts are forwarded from old-billing-address to new-billing-address.</text>
		</g>
		<g id="edge8" class="edge">
			<title>All customer-accounts are forwarded and new energy-services started.-&gt;Old customer-accounts are forwarded from old-billing-address to new-billing-address.</title>
			<path style="fill:none;stroke:black;" d="M723,112C644,123 545,136 464,147"/>
			<polygon style="fill:black;stroke:black;" points="464,150 454,148 464,144 464,150"/>
		</g>
		<g id="node13" class="node">
			<title>Energy-services at new-residence are started.</title>
			<text text-anchor="middle" x="1348" y="171">Energy-services at new-residence are started.</text>
		</g>
		<g id="edge12" class="edge">
			<title>All customer-accounts are forwarded and new energy-services started.-&gt;Energy-services at new-residence are started.</title>
			<path style="fill:none;stroke:black;" d="M981,112C1053,123 1143,136 1216,146"/>
			<polygon style="fill:black;stroke:black;" points="1217,143 1226,148 1216,149 1217,143"/>
		</g>
		<g id="node26" class="node">
			<title>energy-service</title>
			<text text-anchor="middle" x="1272" y="387" style="fill:green;">energy-service</text>
		</g>
		<g id="edge46" class="edge">
			<title>All customer-accounts are forwarded and new energy-services started.-&gt;energy-service</title>
			<path style="fill:none;stroke:green;" d="M921,112C945,130 957,127 979,148 1055,226 1023,295 1116,352 1151,374 1163,376 1205,380 1207,381 1210,381 1213,381"/>
			<polygon style="fill:green;stroke:green;" points="1213,377 1223,381 1213,384 1213,377"/>
		</g>
		<g id="node32" class="node">
			<title>new-billing-address</title>
			<text text-anchor="middle" x="320" y="243" style="fill:green;">new-billing-address</text>
		</g>
		<g id="edge44" class="edge">
			<title>All customer-accounts are forwarded and new energy-services started.-&gt;new-billing-address</title>
			<path style="fill:none;stroke:green;" d="M653,101C484,113 68,143 62,148 5,211 152,230 247,235"/>
			<polygon style="fill:green;stroke:green;" points="247,232 257,236 247,238 247,232"/>
		</g>
		<g id="node34" class="node">
			<title>customer-account</title>
			<text text-anchor="middle" x="459" y="243" style="fill:green;">customer-account</text>
		</g>
		<g id="edge52" class="edge">
			<title>All customer-accounts are forwarded and new energy-services started.-&gt;customer-account</title>
			<path style="fill:none;stroke:green;" d="M723,112C719,114 718,115 715,116 680,132 669,131 634,148 608,162 604,170 578,184 557,195 533,207 512,216"/>
			<polygon style="fill:green;stroke:green;" points="514,219 503,220 511,213 514,219"/>
		</g>
		<g id="node36" class="node">
			<title>customer</title>
			<text text-anchor="middle" x="943" y="315" style="fill:green;">customer</text>
		</g>
		<g id="edge56" class="edge">
			<title>All customer-accounts are forwarded and new energy-services started.-&gt;customer</title>
			<path style="fill:none;stroke:green;" d="M903,112C928,123 955,137 962,148 987,190 970,248 956,283"/>
			<polygon style="fill:green;stroke:green;" points="959,284 952,292 953,281 959,284"/>
		</g>
		<g id="node38" class="node">
			<title>old-billing-address</title>
			<text text-anchor="middle" x="634" y="243" style="fill:green;">old-billing-address</text>
		</g>
		<g id="edge54" class="edge">
			<title>All customer-accounts are forwarded and new energy-services started.-&gt;old-billing-address</title>
			<path style="fill:none;stroke:green;" d="M752,112C710,121 669,133 654,148 639,164 634,190 633,210"/>
			<polygon style="fill:green;stroke:green;" points="637,210 633,220 630,210 637,210"/>
		</g>
		<g id="node42" class="node">
			<title>new-residence</title>
			<text text-anchor="middle" x="1949" y="315" style="fill:green;">new-residence</text>
		</g>
		<g id="edge48" class="edge">
			<title>All customer-accounts are forwarded and new energy-services started.-&gt;new-residence</title>
			<path style="fill:none;stroke:green;" d="M1063,103C1199,116 1448,140 1491,148 1604,170 1631,182 1740,220 1797,240 1859,269 1902,288"/>
			<polygon style="fill:green;stroke:green;" points="1903,285 1911,292 1900,291 1903,285"/>
		</g>
		<g id="node44" class="node">
			<title>old-residence</title>
			<text text-anchor="middle" x="1092" y="171" style="fill:green;">old-residence</text>
		</g>
		<g id="edge50" class="edge">
			<title>All customer-accounts are forwarded and new energy-services started.-&gt;old-residence</title>
			<path style="fill:none;stroke:green;" d="M917,112C954,123 1001,138 1037,149"/>
			<polygon style="fill:green;stroke:green;" points="1038,146 1047,152 1036,152 1038,146"/>
		</g>
		<g id="node4" class="node">
			<title>To do: 1</title>
			<text text-anchor="middle" x="808" y="243" style="fill:red;">To do: 1</text>
		</g>
		<g id="edge6" class="edge">
			<title>Energy-services at old-residence are re-assigned.-&gt;To do: 1</title>
			<path style="fill:none;stroke:red;" d="M808,184C808,192 808,201 808,210"/>
			<polygon style="fill:red;stroke:red;" points="812,210 808,220 805,210 812,210"/>
		</g>
		<g id="edge36" class="edge">
			<title>Old customer-accounts are forwarded from old-billing-address to new-billing-address.-&gt;new-billing-address</title>
			<path style="fill:none;stroke:green;" d="M320,184C320,192 320,201 320,210"/>
			<polygon style="fill:green;stroke:green;" points="324,210 320,220 317,210 324,210"/>
		</g>
		<g id="edge38" class="edge">
			<title>Old customer-accounts are forwarded from old-billing-address to new-billing-address.-&gt;customer-account</title>
			<path style="fill:none;stroke:green;" d="M355,184C373,193 396,205 415,215"/>
			<polygon style="fill:green;stroke:green;" points="417,212 424,220 414,218 417,212"/>
		</g>
		<g id="edge40" class="edge">
			<title>Old customer-accounts are forwarded from old-billing-address to new-billing-address.-&gt;customer</title>
			<path style="fill:none;stroke:green;" d="M401,184C404,185 408,187 412,188 437,196 503,208 525,220 546,232 543,246 564,256 623,284 813,301 900,307"/>
			<polygon style="fill:green;stroke:green;" points="900,304 910,308 900,310 900,304"/>
		</g>
		<g id="edge42" class="edge">
			<title>Old customer-accounts are forwarded from old-billing-address to new-billing-address.-&gt;old-billing-address</title>
			<path style="fill:none;stroke:green;" d="M400,184C446,194 506,208 559,220 560,220 562,221 563,221"/>
			<polygon style="fill:green;stroke:green;" points="564,218 573,223 563,224 564,218"/>
		</g>
		<g id="node10" class="node">
			<title>Signal: Customer has moved-in at new-billing-address.</title>
			<text text-anchor="middle" x="320" y="99" style="fill:blue;">Signal: Customer has moved-in at new-billing-address.</text>
		</g>
		<g id="edge10" class="edge">
			<title>Signal: Customer has moved-in at new-billing-address.-&gt;Old customer-accounts are forwarded from old-billing-address to new-billing-address.</title>
			<path style="fill:none;stroke:black;" d="M320,112C320,120 320,129 320,138"/>
			<polygon style="fill:black;stroke:black;" points="324,138 320,148 317,138 324,138"/>
		</g>
		<g id="node15" class="node">
			<title>Energy-services requested by the customer are all installed.</title>
			<text text-anchor="middle" x="1373" y="243">Energy-services requested by the customer are all installed.</text>
		</g>
		<g id="edge14" class="edge">
			<title>Energy-services at new-residence are started.-&gt;Energy-services requested by the customer are all installed.</title>
			<path style="fill:none;stroke:black;" d="M1354,184C1357,192 1360,202 1364,210"/>
			<polygon style="fill:black;stroke:black;" points="1367,209 1367,220 1361,211 1367,209"/>
		</g>
		<g id="edge74" class="edge">
			<title>Energy-services at new-residence are started.-&gt;energy-service</title>
			<path style="fill:none;stroke:green;" d="M1255,184C1197,201 1128,233 1100,292 1072,350 1150,368 1213,380 1213,380 1213,380 1213,380"/>
			<polygon style="fill:green;stroke:green;" points="1213,377 1223,381 1213,383 1213,377"/>
		</g>
		<g id="edge78" class="edge">
			<title>Energy-services at new-residence are started.-&gt;customer</title>
			<path style="fill:none;stroke:green;" d="M1214,182C1146,192 1073,205 1043,220 1012,236 983,264 965,284"/>
			<polygon style="fill:green;stroke:green;" points="967,287 958,292 962,282 967,287"/>
		</g>
		<g id="edge76" class="edge">
			<title>Energy-services at new-residence are started.-&gt;new-residence</title>
			<path style="fill:none;stroke:green;" d="M1482,176C1639,204 1806,259 1891,289"/>
			<polygon style="fill:green;stroke:green;" points="1892,286 1901,292 1890,292 1892,286"/>
		</g>
		<g id="node63" class="node">
			<title>deposit</title>
			<text text-anchor="middle" x="1593" y="243" style="fill:green;">deposit</text>
		</g>
		<g id="edge80" class="edge">
			<title>Energy-services at new-residence are started.-&gt;deposit</title>
			<path style="fill:none;stroke:green;" d="M1433,184C1469,192 1510,203 1556,220"/>
			<polygon style="fill:green;stroke:green;" points="1557,217 1565,224 1554,223 1557,217"/>
		</g>
		<g id="node17" class="node">
			<title>Energy-service installed at residence.</title>
			<text text-anchor="middle" x="1373" y="315">Energy-service installed at residence.</text>
		</g>
		<g id="edge16" class="edge">
			<title>Energy-services requested by the customer are all installed.-&gt;Energy-service installed at residence.</title>
			<path style="fill:none;stroke:black;" d="M1361,256C1360,264 1359,273 1360,282"/>
			<polygon style="fill:black;stroke:black;" points="1363,282 1361,292 1357,282 1363,282"/>
		</g>
		<g id="edge18" class="edge">
			<title>Energy-services requested by the customer are all installed.-&gt;Energy-service installed at residence.</title>
			<path style="fill:none;stroke:black;" d="M1373,256C1373,264 1373,273 1373,282"/>
			<polygon style="fill:black;stroke:black;" points="1377,282 1373,292 1370,282 1377,282"/>
		</g>
		<g id="edge20" class="edge">
			<title>Energy-services requested by the customer are all installed.-&gt;Energy-service installed at residence.</title>
			<path style="fill:none;stroke:black;" d="M1385,256C1386,264 1387,273 1386,282"/>
			<polygon style="fill:black;stroke:black;" points="1389,282 1385,292 1383,282 1389,282"/>
		</g>
		<g id="edge62" class="edge">
			<title>Energy-services requested by the customer are all installed.-&gt;energy-service</title>
			<path style="fill:none;stroke:green;" d="M1274,256C1270,257 1265,259 1260,260 1251,263 1119,286 1114,292 1081,333 1156,358 1213,371"/>
			<polygon style="fill:green;stroke:green;" points="1214,368 1223,373 1213,374 1214,368"/>
		</g>
		<g id="edge66" class="edge">
			<title>Energy-services requested by the customer are all installed.-&gt;customer</title>
			<path style="fill:none;stroke:green;" d="M1265,256C1175,271 1051,292 986,302"/>
			<polygon style="fill:green;stroke:green;" points="986,305 976,304 985,299 986,305"/>
		</g>
		<g id="edge68" class="edge">
			<title>Energy-services requested by the customer are all installed.-&gt;new-residence</title>
			<path style="fill:none;stroke:green;" d="M1547,256C1679,269 1844,286 1891,292"/>
			<polygon style="fill:green;stroke:green;" points="1892,289 1901,294 1891,295 1892,289"/>
		</g>
		<g id="node52" class="node">
			<title>gas-energy-service</title>
			<text text-anchor="middle" x="1183" y="315" style="fill:green;">gas-energy-service</text>
		</g>
		<g id="edge64" class="edge">
			<title>Energy-services requested by the customer are all installed.-&gt;gas-energy-service</title>
			<path style="fill:none;stroke:green;" d="M1325,256C1299,266 1267,278 1239,288"/>
			<polygon style="fill:green;stroke:green;" points="1241,291 1230,292 1238,285 1241,291"/>
		</g>
		<g id="node56" class="node">
			<title>electric-energy-service</title>
			<text text-anchor="middle" x="1575" y="315" style="fill:green;">electric-energy-service</text>
		</g>
		<g id="edge70" class="edge">
			<title>Energy-services requested by the customer are all installed.-&gt;electric-energy-service</title>
			<path style="fill:none;stroke:green;" d="M1424,256C1452,266 1486,278 1515,289"/>
			<polygon style="fill:green;stroke:green;" points="1516,286 1525,292 1514,292 1516,286"/>
		</g>
		<g id="node58" class="node">
			<title>interruptible-electric-energy-service</title>
			<text text-anchor="middle" x="1774" y="315" style="fill:green;">interruptible-electric-energy-service</text>
		</g>
		<g id="edge72" class="edge">
			<title>Energy-services requested by the customer are all installed.-&gt;interruptible-electric-energy-service</title>
			<path style="fill:none;stroke:green;" d="M1473,256C1531,266 1604,279 1664,290"/>
			<polygon style="fill:green;stroke:green;" points="1665,287 1674,292 1664,293 1665,287"/>
		</g>
		<g id="node20" class="node">
			<title>Cycle detected.</title>
			<text text-anchor="middle" x="1476" y="387" style="fill:red;">Cycle detected.</text>
		</g>
		<g id="edge22" class="edge">
			<title>Energy-service installed at residence.-&gt;Cycle detected.</title>
			<path style="fill:none;stroke:red;" d="M1399,328C1412,337 1428,348 1442,358"/>
			<polygon style="fill:red;stroke:red;" points="1445,356 1451,364 1441,361 1445,356"/>
		</g>
		<g id="edge28" class="edge">
			<title>Energy-service installed at residence.-&gt;energy-service</title>
			<path style="fill:none;stroke:green;" d="M1336,328C1321,337 1306,348 1294,358"/>
			<polygon style="fill:green;stroke:green;" points="1296,361 1286,364 1292,355 1296,361"/>
		</g>
		<g id="edge32" class="edge">
			<title>Energy-service installed at residence.-&gt;energy-service</title>
			<path style="fill:none;stroke:green;" d="M1348,328C1336,337 1320,348 1306,358"/>
			<polygon style="fill:green;stroke:green;" points="1307,361 1297,364 1303,356 1307,361"/>
		</g>
		<g id="edge58" class="edge">
			<title>Energy-service installed at residence.-&gt;energy-service</title>
			<path style="fill:none;stroke:green;" d="M1359,328C1348,337 1333,349 1317,359"/>
			<polygon style="fill:green;stroke:green;" points="1319,362 1309,364 1316,356 1319,362"/>
		</g>
		<g id="node28" class="node">
			<title>residence</title>
			<text text-anchor="middle" x="1373" y="387" style="fill:green;">residence</text>
		</g>
		<g id="edge30" class="edge">
			<title>Energy-service installed at residence.-&gt;residence</title>
			<path style="fill:none;stroke:green;" d="M1361,328C1360,336 1359,345 1360,354"/>
			<polygon style="fill:green;stroke:green;" points="1363,354 1361,364 1357,354 1363,354"/>
		</g>
		<g id="edge34" class="edge">
			<title>Energy-service installed at residence.-&gt;residence</title>
			<path style="fill:none;stroke:green;" d="M1373,328C1373,336 1373,345 1373,354"/>
			<polygon style="fill:green;stroke:green;" points="1377,354 1373,364 1370,354 1377,354"/>
		</g>
		<g id="edge60" class="edge">
			<title>Energy-service installed at residence.-&gt;residence</title>
			<path style="fill:none;stroke:green;" d="M1385,328C1386,336 1387,345 1386,354"/>
			<polygon style="fill:green;stroke:green;" points="1389,354 1385,364 1383,354 1389,354"/>
		</g>
		<g id="node22" class="node">
			<title>Signal: Customer has met deposit requirements.</title>
			<text text-anchor="middle" x="1323" y="99" style="fill:blue;">Signal: Customer has met deposit requirements.</text>
		</g>
		<g id="edge24" class="edge">
			<title>Signal: Customer has met deposit requirements.-&gt;Energy-services at new-residence are started.</title>
			<path style="fill:none;stroke:black;" d="M1329,112C1332,120 1335,130 1339,138"/>
			<polygon style="fill:black;stroke:black;" points="1342,137 1342,148 1336,139 1342,137"/>
		</g>
		<g id="node24" class="node">
			<title>Signal: Customer has possession at new-residence.</title>
			<text text-anchor="middle" x="1633" y="99" style="fill:blue;">Signal: Customer has possession at new-residence.</text>
		</g>
		<g id="edge26" class="edge">
			<title>Signal: Customer has possession at new-residence.-&gt;Energy-services at new-residence are started.</title>
			<path style="fill:none;stroke:black;" d="M1561,112C1521,122 1470,135 1429,146"/>
			<polygon style="fill:black;stroke:black;" points="1429,149 1419,148 1428,143 1429,149"/>
		</g>
		<g id="node65" class="node">
			<title>Work-flow</title>
			<ellipse cx="1272" cy="454" rx="43" ry="18" style="fill:none;stroke:black;"/>
			<text text-anchor="middle" x="1272" y="459">Work-flow</text>
		</g>
		<g id="edge82" class="edge">
			<title>energy-service-&gt;Work-flow</title>
			<path style="fill:none;stroke:blue;" d="M1272,400C1272,408 1272,417 1272,426"/>
			<polygon style="fill:blue;stroke:blue;" points="1276,426 1272,436 1269,426 1276,426"/>
		</g>
		<g id="node67" class="node">
			<title>Field</title>
			<ellipse cx="1556" cy="454" rx="26" ry="18" style="fill:none;stroke:black;"/>
			<text text-anchor="middle" x="1556" y="459">Field</text>
		</g>
		<g id="edge84" class="edge">
			<title>energy-service-&gt;Field</title>
			<path style="fill:none;stroke:blue;" d="M1321,398C1324,398 1327,399 1330,400 1397,419 1476,436 1520,447"/>
			<polygon style="fill:blue;stroke:blue;" points="1521,444 1530,449 1520,450 1521,444"/>
		</g>
		<g id="node70" class="node">
			<title>Billing</title>
			<ellipse cx="497" cy="382" rx="31" ry="18" style="fill:none;stroke:black;"/>
			<text text-anchor="middle" x="497" y="387">Billing</text>
		</g>
		<g id="edge88" class="edge">
			<title>new-billing-address-&gt;Billing</title>
			<path style="fill:none;stroke:blue;" d="M335,256C360,283 408,334 461,367"/>
			<polygon style="fill:blue;stroke:blue;" points="463,364 470,372 460,370 463,364"/>
		</g>
		<g id="edge90" class="edge">
			<title>customer-account-&gt;Billing</title>
			<path style="fill:none;stroke:blue;" d="M462,256C465,275 471,304 478,328 480,337 483,346 486,354"/>
			<polygon style="fill:blue;stroke:blue;" points="490,353 490,364 483,356 490,353"/>
		</g>
		<g id="edge92" class="edge">
			<title>customer-&gt;Billing</title>
			<path style="fill:none;stroke:blue;" d="M910,315C829,328 626,361 538,375"/>
			<polygon style="fill:blue;stroke:blue;" points="538,378 528,377 537,372 538,378"/>
		</g>
		<g id="edge86" class="edge">
			<title>new-residence-&gt;Field</title>
			<path style="fill:none;stroke:blue;" d="M1901,328C1820,358 1659,416 1590,442"/>
			<polygon style="fill:blue;stroke:blue;" points="1591,445 1580,445 1589,439 1591,445"/>
		</g>
		<g id="node74" class="node">
			<title>billing-address</title>
			<text text-anchor="middle" x="536" y="315" style="fill:red;">billing-address</text>
		</g>
		<g id="edge94" class="edge">
			<title>billing-address-&gt;Billing</title>
			<path style="fill:none;stroke:blue;" d="M526,328C522,336 517,346 512,355"/>
			<polygon style="fill:blue;stroke:blue;" points="515,357 507,364 509,354 515,357"/>
		</g>
	</g>
</svg>
