<?xml version="1.0" encoding="UTF-8" standalone="no"?>
<!DOCTYPE svg PUBLIC "-//W3C//DTD SVG 1.0//EN" "http://www.w3.org/TR/2001/REC-SVG-20010904/DTD/svg10.dtd">
<!-- Generated by dot version 1.13 (v16) (Mon August 23, 2004)
     For user: (admin) Richard Green - Admin   Title: statements    Pages: 1 -->
<svg xmlns="http://www.w3.org/2000/svg" width="458pt" height="1016pt" viewBox="-1 -1 457 1015">
	<g id="graph0" class="graph" style="font-family:Times-Roman;font-size:14.00;">
		<title>statements</title>
		<text text-anchor="middle" x="228" y="1001">Statement Definitions and References</text>
		<g id="node1" class="node">
			<title>all customer-accounts are forwarded and new energy-services started.</title>
			<text text-anchor="middle" x="248" y="917">all customer-accounts are forwarded and new energy-services started.</text>
		</g>
		<g id="node2" class="node">
			<title>Task: Move customer to new-residence.</title>
			<ellipse cx="7" cy="939" rx="2" ry="2" style="fill:black;stroke:black;"/>
		</g>
		<g id="edge2" class="edge">
			<title>Task: Move customer to new-residence.-&gt;all customer-accounts are forwarded and new energy-services started.</title>
			<path style="fill:none;stroke:blue;" d="M9,939C16,938 44,935 79,931"/>
			<ellipse cx="83" cy="930" rx="4" ry="4" style="fill:blue;stroke:blue;"/>
		</g>
		<g id="node29" class="node">
			<title>move customer to new-residence.</title>
			<text text-anchor="middle" x="248" y="971">move customer to new-residence.</text>
		</g>
		<g id="edge22" class="edge">
			<title>Task: Move customer to new-residence.-&gt;move customer to new-residence.</title>
			<path style="fill:none;stroke:blue;" d="M9,939C21,941 81,947 138,954"/>
			<ellipse cx="142" cy="955" rx="4" ry="4" style="fill:blue;stroke:blue;"/>
		</g>
		<g id="node4" class="node">
			<title>change billing-address for all customer's customer-accounts.</title>
			<text text-anchor="middle" x="248" y="819" style="fill:blue;">change billing-address for all customer's customer-accounts.</text>
		</g>
		<g id="node5" class="node">
			<title>Action: Change the billing-address for all the customer's customer-accounts.</title>
			<ellipse cx="7" cy="852" rx="2" ry="2" style="fill:black;stroke:black;"/>
		</g>
		<g id="edge4" class="edge">
			<title>Action: Change the billing-address for all the customer's customer-accounts.-&gt;change billing-address for all customer's customer-accounts.</title>
			<path style="fill:none;stroke:blue;" d="M9,851C15,849 31,843 45,841 58,838 72,836 86,833"/>
			<ellipse cx="90" cy="832" rx="4" ry="4" style="fill:blue;stroke:blue;"/>
		</g>
		<g id="node39" class="node">
			<title>change billing-address to new-address.</title>
			<ellipse cx="248" cy="852" rx="2" ry="2" style="fill:black;stroke:black;"/>
		</g>
		<g id="edge30" class="edge">
			<title>Action: Change the billing-address for all the customer's customer-accounts.-&gt;change billing-address to new-address.</title>
			<path style="fill:none;stroke:cyan;" d="M9,852C29,852 189,852 236,852"/>
			<polygon style="fill:cyan;stroke:cyan;" points="236,848 246,852 236,855 236,848"/>
		</g>
		<g id="node53" class="node">
			<title>for each of customer's accounts:</title>
			<ellipse cx="248" cy="874" rx="2" ry="2" style="fill:black;stroke:black;"/>
		</g>
		<g id="edge44" class="edge">
			<title>Action: Change the billing-address for all the customer's customer-accounts.-&gt;for each of customer's accounts:</title>
			<path style="fill:none;stroke:cyan;" d="M9,853C15,855 31,861 45,863 117,875 204,875 236,874"/>
			<polygon style="fill:cyan;stroke:cyan;" points="236,870 246,874 236,877 236,870"/>
		</g>
		<g id="node7" class="node">
			<title>change to new-billing-address for all customer's customer-accounts.</title>
			<text text-anchor="middle" x="248" y="721" style="fill:blue;">change to new-billing-address for all customer's customer-accounts.</text>
		</g>
		<g id="node8" class="node">
			<title>Action: Change to new-billing-address for all the customer's customer-accounts.</title>
			<ellipse cx="7" cy="754" rx="2" ry="2" style="fill:black;stroke:black;"/>
		</g>
		<g id="edge6" class="edge">
			<title>Action: Change to new-billing-address for all the customer's customer-accounts.-&gt;change to new-billing-address for all customer's customer-accounts.</title>
			<path style="fill:none;stroke:blue;" d="M9,753C15,751 31,745 45,743 58,740 72,738 86,735"/>
			<ellipse cx="90" cy="734" rx="4" ry="4" style="fill:blue;stroke:blue;"/>
		</g>
		<g id="node41" class="node">
			<title>change customer-account billing-address to new-billing-address.</title>
			<ellipse cx="248" cy="754" rx="2" ry="2" style="fill:black;stroke:black;"/>
		</g>
		<g id="edge32" class="edge">
			<title>Action: Change to new-billing-address for all the customer's customer-accounts.-&gt;change customer-account billing-address to new-billing-address.</title>
			<path style="fill:none;stroke:cyan;" d="M9,754C29,754 189,754 236,754"/>
			<polygon style="fill:cyan;stroke:cyan;" points="236,750 246,754 236,757 236,750"/>
		</g>
		<g id="node55" class="node">
			<title>for each of customer's customer-accounts:</title>
			<ellipse cx="248" cy="776" rx="2" ry="2" style="fill:black;stroke:black;"/>
		</g>
		<g id="edge46" class="edge">
			<title>Action: Change to new-billing-address for all the customer's customer-accounts.-&gt;for each of customer's customer-accounts:</title>
			<path style="fill:none;stroke:cyan;" d="M9,755C15,757 31,763 45,765 117,777 204,777 236,776"/>
			<polygon style="fill:cyan;stroke:cyan;" points="236,772 246,776 236,779 236,772"/>
		</g>
		<g id="node10" class="node">
			<title>energy-service installed at residence.</title>
			<text text-anchor="middle" x="248" y="613">energy-service installed at residence.</text>
		</g>
		<g id="node11" class="node">
			<title>Task: Install energy-service at residence.</title>
			<ellipse cx="7" cy="635" rx="2" ry="2" style="fill:black;stroke:black;"/>
		</g>
		<g id="edge8" class="edge">
			<title>Task: Install energy-service at residence.-&gt;energy-service installed at residence.</title>
			<path style="fill:none;stroke:blue;" d="M9,635C20,634 75,628 129,621"/>
			<ellipse cx="133" cy="620" rx="4" ry="4" style="fill:blue;stroke:blue;"/>
		</g>
		<g id="node22" class="node">
			<title>install energy-service at residence.</title>
			<text text-anchor="middle" x="248" y="667">install energy-service at residence.</text>
		</g>
		<g id="edge16" class="edge">
			<title>Task: Install energy-service at residence.-&gt;install energy-service at residence.</title>
			<path style="fill:none;stroke:blue;" d="M9,635C20,637 79,643 135,649"/>
			<ellipse cx="139" cy="650" rx="4" ry="4" style="fill:blue;stroke:blue;"/>
		</g>
		<g id="node13" class="node">
			<title>energy-services at new-address are started.</title>
			<text text-anchor="middle" x="248" y="461">energy-services at new-address are started.</text>
		</g>
		<g id="node14" class="node">
			<title>Task: Start the energy-services at the customer's new-address.</title>
			<ellipse cx="7" cy="529" rx="2" ry="2" style="fill:black;stroke:black;"/>
		</g>
		<g id="edge10" class="edge">
			<title>Task: Start the energy-services at the customer's new-address.-&gt;energy-services at new-address are started.</title>
			<path style="fill:none;stroke:blue;" d="M8,527C11,520 25,493 45,483 66,471 89,464 112,459"/>
			<ellipse cx="116" cy="458" rx="4" ry="4" style="fill:blue;stroke:blue;"/>
		</g>
		<g id="node33" class="node">
			<title>start energy-services at customer's new-address.</title>
			<text text-anchor="middle" x="248" y="515">start energy-services at customer's new-address.</text>
		</g>
		<g id="edge26" class="edge">
			<title>Task: Start the energy-services at the customer's new-address.-&gt;start energy-services at customer's new-address.</title>
			<path style="fill:none;stroke:blue;" d="M9,529C18,528 55,525 98,522"/>
			<ellipse cx="102" cy="521" rx="4" ry="4" style="fill:blue;stroke:blue;"/>
		</g>
		<g id="node43" class="node">
			<title>customer has met deposit requirements.</title>
			<ellipse cx="248" cy="548" rx="2" ry="2" style="fill:black;stroke:black;"/>
		</g>
		<g id="edge34" class="edge">
			<title>Task: Start the energy-services at the customer's new-address.-&gt;customer has met deposit requirements.</title>
			<path style="fill:none;stroke:cyan;" d="M9,529C15,531 31,535 45,537 117,546 204,548 236,548"/>
			<polygon style="fill:cyan;stroke:cyan;" points="236,544 246,548 236,551 236,544"/>
		</g>
		<g id="node47" class="node">
			<title>customer has possession at new-address.</title>
			<ellipse cx="248" cy="570" rx="2" ry="2" style="fill:black;stroke:black;"/>
		</g>
		<g id="edge38" class="edge">
			<title>Task: Start the energy-services at the customer's new-address.-&gt;customer has possession at new-address.</title>
			<path style="fill:none;stroke:cyan;" d="M9,531C13,536 28,552 45,559 113,584 204,576 236,572"/>
			<polygon style="fill:cyan;stroke:cyan;" points="236,569 246,570 237,575 236,569"/>
		</g>
		<g id="node16" class="node">
			<title>energy-services requested by customer are all installed.</title>
			<text text-anchor="middle" x="248" y="353">energy-services requested by customer are all installed.</text>
		</g>
		<g id="node17" class="node">
			<title>Task: Install or prove requested energy-services.</title>
			<ellipse cx="7" cy="375" rx="2" ry="2" style="fill:black;stroke:black;"/>
		</g>
		<g id="edge12" class="edge">
			<title>Task: Install or prove requested energy-services.-&gt;energy-services requested by customer are all installed.</title>
			<path style="fill:none;stroke:blue;" d="M9,375C16,374 44,371 79,367"/>
			<ellipse cx="83" cy="366" rx="4" ry="4" style="fill:blue;stroke:blue;"/>
		</g>
		<g id="node27" class="node">
			<title>install or prove requested energy-services.</title>
			<text text-anchor="middle" x="248" y="407">install or prove requested energy-services.</text>
		</g>
		<g id="edge20" class="edge">
			<title>Task: Install or prove requested energy-services.-&gt;install or prove requested energy-services.</title>
			<path style="fill:none;stroke:blue;" d="M9,375C19,376 65,381 114,387"/>
			<ellipse cx="118" cy="388" rx="4" ry="4" style="fill:blue;stroke:blue;"/>
		</g>
		<g id="node19" class="node">
			<title>forward old customer-accounts to customer's new-billing-address.</title>
			<text text-anchor="middle" x="248" y="223">forward old customer-accounts to customer's new-billing-address.</text>
		</g>
		<g id="node20" class="node">
			<title>Task: Forward old customer-accounts to customer's new-billing-address.</title>
			<ellipse cx="7" cy="272" rx="2" ry="2" style="fill:black;stroke:black;"/>
		</g>
		<g id="edge14" class="edge">
			<title>Task: Forward old customer-accounts to customer's new-billing-address.-&gt;forward old customer-accounts to customer's new-billing-address.</title>
			<path style="fill:none;stroke:blue;" d="M9,270C14,266 29,252 45,245 51,243 58,241 64,239"/>
			<ellipse cx="68" cy="237" rx="4" ry="4" style="fill:blue;stroke:blue;"/>
		</g>
		<g id="node31" class="node">
			<title>old customer-accounts are forwarded to new-billing-address.</title>
			<text text-anchor="middle" x="248" y="277">old customer-accounts are forwarded to new-billing-address.</text>
		</g>
		<g id="edge24" class="edge">
			<title>Task: Forward old customer-accounts to customer's new-billing-address.-&gt;old customer-accounts are forwarded to new-billing-address.</title>
			<path style="fill:none;stroke:blue;" d="M9,272C15,272 36,272 62,272"/>
			<ellipse cx="66" cy="272" rx="4" ry="4" style="fill:blue;stroke:blue;"/>
		</g>
		<g id="node45" class="node">
			<title>customer has moved-in at new billing-address.</title>
			<ellipse cx="248" cy="310" rx="2" ry="2" style="fill:black;stroke:black;"/>
		</g>
		<g id="edge36" class="edge">
			<title>Task: Forward old customer-accounts to customer's new-billing-address.-&gt;customer has moved-in at new billing-address.</title>
			<path style="fill:none;stroke:cyan;" d="M9,274C14,278 29,293 45,299 114,323 204,316 236,311"/>
			<polygon style="fill:cyan;stroke:cyan;" points="236,308 246,310 236,314 236,308"/>
		</g>
		<g id="node24" class="node">
			<title>install new energy-service at location.</title>
			<text text-anchor="middle" x="248" y="125" style="fill:blue;">install new energy-service at location.</text>
		</g>
		<g id="node25" class="node">
			<title>Action: Install new energy-service at location.</title>
			<ellipse cx="7" cy="158" rx="2" ry="2" style="fill:black;stroke:black;"/>
		</g>
		<g id="edge18" class="edge">
			<title>Action: Install new energy-service at location.-&gt;install new energy-service at location.</title>
			<path style="fill:none;stroke:blue;" d="M9,157C15,155 31,150 45,147 71,142 99,137 126,134"/>
			<ellipse cx="130" cy="133" rx="4" ry="4" style="fill:blue;stroke:blue;"/>
		</g>
		<g id="node49" class="node">
			<title>dispatch crew to install new energy-service at time of appointment.</title>
			<ellipse cx="248" cy="158" rx="2" ry="2" style="fill:black;stroke:black;"/>
		</g>
		<g id="edge40" class="edge">
			<title>Action: Install new energy-service at location.-&gt;dispatch crew to install new energy-service at time of appointment.</title>
			<path style="fill:none;stroke:cyan;" d="M9,158C29,158 189,158 236,158"/>
			<polygon style="fill:cyan;stroke:cyan;" points="236,154 246,158 236,161 236,154"/>
		</g>
		<g id="node59" class="node">
			<title>make appointment for installation of new energy-service.</title>
			<ellipse cx="248" cy="180" rx="2" ry="2" style="fill:black;stroke:black;"/>
		</g>
		<g id="edge50" class="edge">
			<title>Action: Install new energy-service at location.-&gt;make appointment for installation of new energy-service.</title>
			<path style="fill:none;stroke:cyan;" d="M9,159C15,161 31,167 45,169 117,182 204,181 236,180"/>
			<polygon style="fill:cyan;stroke:cyan;" points="236,176 246,180 236,183 236,176"/>
		</g>
		<g id="node35" class="node">
			<title>start requested energy-services at new-address.</title>
			<text text-anchor="middle" x="248" y="27" style="fill:blue;">start requested energy-services at new-address.</text>
		</g>
		<g id="node36" class="node">
			<title>Action: Start requested energy-services at new-address.</title>
			<ellipse cx="7" cy="60" rx="2" ry="2" style="fill:black;stroke:black;"/>
		</g>
		<g id="edge28" class="edge">
			<title>Action: Start requested energy-services at new-address.-&gt;start requested energy-services at new-address.</title>
			<path style="fill:none;stroke:blue;" d="M9,59C15,57 31,52 45,49 62,45 82,42 100,39"/>
			<ellipse cx="104" cy="38" rx="4" ry="4" style="fill:blue;stroke:blue;"/>
		</g>
		<g id="node51" class="node">
			<title>dispatch worker to turn-on energy-service at time of appointment.</title>
			<ellipse cx="248" cy="60" rx="2" ry="2" style="fill:black;stroke:black;"/>
		</g>
		<g id="edge42" class="edge">
			<title>Action: Start requested energy-services at new-address.-&gt;dispatch worker to turn-on energy-service at time of appointment.</title>
			<path style="fill:none;stroke:cyan;" d="M9,60C29,60 189,60 236,60"/>
			<polygon style="fill:cyan;stroke:cyan;" points="236,56 246,60 236,63 236,56"/>
		</g>
		<g id="node57" class="node">
			<title>make appointment for energy-service turn-on.</title>
			<ellipse cx="248" cy="82" rx="2" ry="2" style="fill:black;stroke:black;"/>
		</g>
		<g id="edge48" class="edge">
			<title>Action: Start requested energy-services at new-address.-&gt;make appointment for energy-service turn-on.</title>
			<path style="fill:none;stroke:cyan;" d="M9,61C15,63 31,69 45,71 117,84 204,83 236,82"/>
			<polygon style="fill:cyan;stroke:cyan;" points="236,78 246,82 236,85 236,78"/>
		</g>
	</g>
</svg>
