<?xml version="1.0" encoding="UTF-8" standalone="no"?>
<!DOCTYPE svg PUBLIC "-//W3C//DTD SVG 1.0//EN" "http://www.w3.org/TR/2001/REC-SVG-20010904/DTD/svg10.dtd">
<!-- Generated by dot version 1.13 (v16) (Mon August 23, 2004)
     For user: (admin) Richard Green - Admin   Title: taskTree    Pages: 1 -->
<svg xmlns="http://www.w3.org/2000/svg" width="1612pt" height="396pt" viewBox="-1 -1 1611 395">
	<g id="graph0" class="graph" style="font-family:Times-Roman;font-size:14.00;">
		<title>taskTree</title>
		<text text-anchor="middle" x="805" y="381">*** 1 Missing Frames. ***</text>
		<g id="node1" class="node">
			<title>All customer-accounts are forwarded and new energy-services started.</title>
			<polygon style="fill:none;stroke:black;" points="1604,141 1196,141 1196,177 1604,177 1604,141"/>
			<text text-anchor="middle" x="1400" y="164">All customer-accounts are forwarded and new energy-services started.</text>
		</g>
		<g id="node2" class="node">
			<title>Old customer-accounts are forwarded to new-billing-address.</title>
			<polygon style="fill:none;stroke:black;" points="1158,74 800,74 800,110 1158,110 1158,74"/>
			<text text-anchor="middle" x="979" y="97">Old customer-accounts are forwarded to new-billing-address.</text>
		</g>
		<g id="edge2" class="edge">
			<title>Old customer-accounts are forwarded to new-billing-address.-&gt;All customer-accounts are forwarded and new energy-services started.</title>
			<path style="fill:none;stroke:black;" d="M1092,110C1149,119 1218,130 1276,139"/>
			<polygon style="fill:black;stroke:black;" points="1277,136 1286,141 1276,142 1277,136"/>
		</g>
		<g id="node31" class="node">
			<title>Billing</title>
			<ellipse cx="1400" cy="92" rx="31" ry="18" style="fill:none;stroke:black;"/>
			<text text-anchor="middle" x="1400" y="97" style="fill:blue;">Billing</text>
		</g>
		<g id="edge30" class="edge">
			<title>Old customer-accounts are forwarded to new-billing-address.-&gt;Billing</title>
			<path style="fill:none;stroke:blue;" d="M1159,92C1232,92 1310,92 1357,92"/>
			<polygon style="fill:blue;stroke:blue;" points="1357,88 1367,92 1357,95 1357,88"/>
		</g>
		<g id="node4" class="node">
			<title>Customer has moved-in at new billing-address.</title>
			<polygon style="fill:none;stroke:black;" points="728,60 448,60 448,96 728,96 728,60"/>
			<text text-anchor="middle" x="588" y="83">Customer has moved-in at new billing-address.</text>
		</g>
		<g id="edge4" class="edge">
			<title>Customer has moved-in at new billing-address.-&gt;Old customer-accounts are forwarded to new-billing-address.</title>
			<path style="fill:none;stroke:black;" d="M728,83C748,84 768,85 789,86"/>
			<polygon style="fill:black;stroke:black;" points="789,82 799,86 789,89 789,82"/>
		</g>
		<g id="node6" class="node">
			<title>Signal 1: Customer has moved-in at new billing-address.</title>
			<polygon style="fill:green;stroke:green;" points="358,58 24,58 24,94 358,94 358,58"/>
			<text text-anchor="middle" x="191" y="81">Signal 1: Customer has moved-in at new billing-address.</text>
		</g>
		<g id="edge6" class="edge">
			<title>Signal 1: Customer has moved-in at new billing-address.-&gt;Customer has moved-in at new billing-address.</title>
			<path style="fill:none;stroke:green;" d="M358,77C384,77 412,77 438,77"/>
			<polygon style="fill:green;stroke:green;" points="438,73 448,77 438,80 438,73"/>
		</g>
		<g id="node8" class="node">
			<title>Energy-services at old-address are re-assigned.</title>
			<polygon style="fill:none;stroke:black;" points="1117,141 841,141 841,177 1117,177 1117,141"/>
			<text text-anchor="middle" x="979" y="164">Energy-services at old-address are re-assigned.</text>
		</g>
		<g id="edge8" class="edge">
			<title>Energy-services at old-address are re-assigned.-&gt;All customer-accounts are forwarded and new energy-services started.</title>
			<path style="fill:none;stroke:black;" d="M1119,159C1140,159 1162,159 1185,159"/>
			<polygon style="fill:black;stroke:black;" points="1185,155 1195,159 1185,162 1185,155"/>
		</g>
		<g id="node10" class="node">
			<title>To do: 1</title>
			<text text-anchor="middle" x="588" y="164" style="fill:red;">To do: 1</text>
		</g>
		<g id="edge10" class="edge">
			<title>To do: 1-&gt;Energy-services at old-address are re-assigned.</title>
			<path style="fill:none;stroke:red;" d="M619,159C664,159 752,159 829,159"/>
			<polygon style="fill:red;stroke:red;" points="829,155 839,159 829,162 829,155"/>
		</g>
		<g id="node12" class="node">
			<title>Energy-services at new-address are started.</title>
			<polygon style="fill:none;stroke:black;" points="1107,239 851,239 851,275 1107,275 1107,239"/>
			<text text-anchor="middle" x="979" y="262">Energy-services at new-address are started.</text>
		</g>
		<g id="edge12" class="edge">
			<title>Energy-services at new-address are started.-&gt;All customer-accounts are forwarded and new energy-services started.</title>
			<path style="fill:none;stroke:black;" d="M1057,239C1130,223 1237,197 1313,179"/>
			<polygon style="fill:black;stroke:black;" points="1313,176 1323,177 1314,182 1313,176"/>
		</g>
		<g id="node33" class="node">
			<title>Field</title>
			<ellipse cx="1400" cy="257" rx="26" ry="18" style="fill:none;stroke:black;"/>
			<text text-anchor="middle" x="1400" y="262" style="fill:blue;">Field</text>
		</g>
		<g id="edge32" class="edge">
			<title>Energy-services at new-address are started.-&gt;Field</title>
			<path style="fill:none;stroke:blue;" d="M1108,257C1195,257 1305,257 1362,257"/>
			<polygon style="fill:blue;stroke:blue;" points="1362,253 1372,257 1362,260 1362,253"/>
		</g>
		<g id="node14" class="node">
			<title>Energy-services requested by the customer are all installed.</title>
			<polygon style="fill:none;stroke:black;" points="761,208 415,208 415,244 761,244 761,208"/>
			<text text-anchor="middle" x="588" y="231">Energy-services requested by the customer are all installed.</text>
		</g>
		<g id="edge14" class="edge">
			<title>Energy-services requested by the customer are all installed.-&gt;Energy-services at new-address are started.</title>
			<path style="fill:none;stroke:black;" d="M762,240C788,242 815,244 840,246"/>
			<polygon style="fill:black;stroke:black;" points="840,243 850,247 840,249 840,243"/>
		</g>
		<g id="node16" class="node">
			<title>Electric-energy-service installed at new-residence.</title>
			<polygon style="fill:none;stroke:black;" points="339,112 43,112 43,148 339,148 339,112"/>
			<text text-anchor="middle" x="191" y="135">Electric-energy-service installed at new-residence.</text>
		</g>
		<g id="edge16" class="edge">
			<title>Electric-energy-service installed at new-residence.-&gt;Energy-services requested by the customer are all installed.</title>
			<path style="fill:none;stroke:black;" d="M340,144C353,148 365,152 377,157 396,166 395,178 413,186 429,194 446,200 464,205"/>
			<polygon style="fill:black;stroke:black;" points="465,202 474,208 463,208 465,202"/>
		</g>
		<g id="node18" class="node">
			<title>Energy-service installed at residence.</title>
			<polygon style="fill:none;stroke:black;" points="302,4 80,4 80,40 302,40 302,4"/>
			<text text-anchor="middle" x="191" y="27">Energy-service installed at residence.</text>
		</g>
		<g id="node35" class="node">
			<title>Workflow</title>
			<ellipse cx="588" cy="22" rx="40" ry="18" style="fill:none;stroke:black;"/>
			<text text-anchor="middle" x="588" y="27" style="fill:blue;">Workflow</text>
		</g>
		<g id="edge34" class="edge">
			<title>Energy-service installed at residence.-&gt;Workflow</title>
			<path style="fill:none;stroke:blue;" d="M304,22C380,22 478,22 537,22"/>
			<polygon style="fill:blue;stroke:blue;" points="537,18 547,22 537,25 537,18"/>
		</g>
		<g id="node19" class="node">
			<title>Interruptible-electric-energy-service installed at new-residence.</title>
			<polygon style="fill:none;stroke:black;" points="376,166 6,166 6,202 376,202 376,166"/>
			<text text-anchor="middle" x="191" y="189">Interruptible-electric-energy-service installed at new-residence.</text>
		</g>
		<g id="edge18" class="edge">
			<title>Interruptible-electric-energy-service installed at new-residence.-&gt;Energy-services requested by the customer are all installed.</title>
			<path style="fill:none;stroke:black;" d="M361,202C377,204 393,205 409,207"/>
			<polygon style="fill:black;stroke:black;" points="409,204 419,208 409,210 409,204"/>
		</g>
		<g id="node21" class="node">
			<title>Gas-energy-service installed at new-residence.</title>
			<polygon style="fill:none;stroke:black;" points="329,220 53,220 53,256 329,256 329,220"/>
			<text text-anchor="middle" x="191" y="243">Gas-energy-service installed at new-residence.</text>
		</g>
		<g id="edge20" class="edge">
			<title>Gas-energy-service installed at new-residence.-&gt;Energy-services requested by the customer are all installed.</title>
			<path style="fill:none;stroke:black;" d="M330,234C354,233 379,232 404,231"/>
			<polygon style="fill:black;stroke:black;" points="404,227 414,231 404,234 404,227"/>
		</g>
		<g id="node23" class="node">
			<title>Customer has met deposit requirements.</title>
			<polygon style="fill:none;stroke:black;" points="708,269 468,269 468,305 708,305 708,269"/>
			<text text-anchor="middle" x="588" y="292">Customer has met deposit requirements.</text>
		</g>
		<g id="edge22" class="edge">
			<title>Customer has met deposit requirements.-&gt;Energy-services at new-address are started.</title>
			<path style="fill:none;stroke:black;" d="M709,278C751,274 797,271 840,268"/>
			<polygon style="fill:black;stroke:black;" points="840,265 850,267 840,271 840,265"/>
		</g>
		<g id="node25" class="node">
			<title>Signal 2: Customer has met deposit requirements.</title>
			<polygon style="fill:green;stroke:green;" points="337,274 45,274 45,310 337,310 337,274"/>
			<text text-anchor="middle" x="191" y="297">Signal 2: Customer has met deposit requirements.</text>
		</g>
		<g id="edge24" class="edge">
			<title>Signal 2: Customer has met deposit requirements.-&gt;Customer has met deposit requirements.</title>
			<path style="fill:none;stroke:green;" d="M339,290C377,290 419,289 457,289"/>
			<polygon style="fill:green;stroke:green;" points="457,285 467,289 457,292 457,285"/>
		</g>
		<g id="node27" class="node">
			<title>Customer has possession at new-address.</title>
			<polygon style="fill:none;stroke:black;" points="710,326 466,326 466,362 710,362 710,326"/>
			<text text-anchor="middle" x="588" y="349">Customer has possession at new-address.</text>
		</g>
		<g id="edge26" class="edge">
			<title>Customer has possession at new-address.-&gt;Energy-services at new-address are started.</title>
			<path style="fill:none;stroke:black;" d="M700,326C721,322 743,318 763,314 811,303 864,289 905,278"/>
			<polygon style="fill:black;stroke:black;" points="904,275 915,275 906,281 904,275"/>
		</g>
		<g id="node29" class="node">
			<title>Signal 3: Customer has possession at new-address.</title>
			<polygon style="fill:green;stroke:green;" points="341,328 41,328 41,364 341,364 341,328"/>
			<text text-anchor="middle" x="191" y="351">Signal 3: Customer has possession at new-address.</text>
		</g>
		<g id="edge28" class="edge">
			<title>Signal 3: Customer has possession at new-address.-&gt;Customer has possession at new-address.</title>
			<path style="fill:none;stroke:green;" d="M341,345C378,345 418,345 454,345"/>
			<polygon style="fill:green;stroke:green;" points="454,341 464,345 454,348 454,341"/>
		</g>
	</g>
</svg>
